<svg fill="none" height="320" viewBox="0 0 1127 320" width="1127" xmlns="http://www.w3.org/2000/svg"><g fill="#fff"><g clip-rule="evenodd" fill-rule="evenodd"><g opacity=".2"><path d="m714 48c-8.837 0-16 7.1634-16 16v17.5842c-36.516 7.3378-64 39.2978-64 77.6118 0 .27.006.538.018.804h-.018v52.87l-32 11.13v32h224v-32l-32-11.13v-52.87h-.018c.012-.266.018-.534.018-.804 0-38.314-27.484-70.274-64-77.6118v-17.5842c0-8.8366-7.163-16-16-16z"/><path d="m686.281 272c-2.723 4.707-4.281 10.171-4.281 16 0 17.673 14.327 32 32 32s32-14.327 32-32c0-5.829-1.558-11.293-4.281-16z"/></g><path d="m470.372 168-68.686-68.6863 22.627-22.6274 107.314 107.3137-107.314 107.314-22.627-22.628 68.686-68.686h-169.372v-32z" opacity=".2"/><g opacity=".2"><path d="m16 96c-8.83656 0-16 7.163-16 16v128c0 8.837 7.16345 16 16 16h192c8.837 0 16-7.163 16-16v-128c0-8.837-7.163-16-16-16zm120 80c0 13.255-10.745 24-24 24-13.2548 0-24-10.745-24-24s10.7452-24 24-24c13.255 0 24 10.745 24 24z"/><path d="m160 144v-64c0-26.5097-21.49-48-48-48-26.5097 0-48 21.4903-48 48v32h-32v-32c0-44.1828 35.8172-80 80-80 44.183 0 80 35.8172 80 80v64z"/></g></g><g opacity=".2"><path d="m903 112h208c8.84 0 16 7.163 16 16v112c0 8.837-7.16 16-16 16h-192c-8.837 0-16-7.163-16-16z"/><path d="m903 80c0-8.8366 7.163-16 16-16h64c8.837 0 16 7.1634 16 16v16h-96z"/></g></g></svg>