<svg width="273" height="204" viewBox="0 0 273 204" fill="none" xmlns="http://www.w3.org/2000/svg">
<g clip-path="url(#clip0_13_420)">
<g opacity="0.14">
<rect y="-6.13" width="1.74" height="208.8" fill="white"/>
<rect x="6.95996" y="-6.13" width="1.74" height="208.8" fill="white"/>
<rect x="13.9199" y="-6.13" width="1.74" height="208.8" fill="white"/>
<rect x="20.8799" y="-6.13" width="1.74" height="208.8" fill="white"/>
<rect x="27.8398" y="-6.13" width="1.74" height="208.8" fill="white"/>
<rect x="34.7998" y="-6.13" width="1.74" height="208.8" fill="white"/>
<rect x="41.7598" y="-6.13" width="1.74" height="208.8" fill="white"/>
<rect x="48.7202" y="-6.13" width="1.74" height="208.8" fill="white"/>
<rect x="55.6802" y="-6.13" width="1.74" height="208.8" fill="white"/>
<rect x="62.6401" y="-6.13" width="1.74" height="208.8" fill="white"/>
<rect x="69.6001" y="-6.13" width="1.74" height="208.8" fill="white"/>
<rect x="76.5601" y="-6.13" width="1.74" height="208.8" fill="white"/>
<rect x="83.52" y="-6.13" width="1.74" height="208.8" fill="white"/>
<rect x="90.48" y="-6.13" width="1.74" height="208.8" fill="white"/>
<rect x="97.4399" y="-6.13" width="1.74" height="208.8" fill="white"/>
<rect x="104.4" y="-6.13" width="1.74" height="208.8" fill="white"/>
<rect x="111.36" y="-6.13" width="1.74" height="208.8" fill="white"/>
<rect x="118.32" y="-6.13" width="1.74" height="208.8" fill="white"/>
<rect x="125.28" y="-6.13" width="1.74" height="208.8" fill="white"/>
<rect x="132.24" y="-6.13" width="1.74" height="208.8" fill="white"/>
<rect x="139.2" y="-6.13" width="1.74" height="208.8" fill="white"/>
<rect x="146.16" y="-6.13" width="1.74" height="208.8" fill="white"/>
<rect x="153.12" y="-6.13" width="1.74" height="208.8" fill="white"/>
<rect x="160.08" y="-6.13" width="1.74" height="208.8" fill="white"/>
<rect x="167.04" y="-6.13" width="1.74" height="208.8" fill="white"/>
<rect x="174" y="-6.13" width="1.74" height="208.8" fill="white"/>
<rect x="180.96" y="-6.13" width="1.74" height="208.8" fill="white"/>
<rect x="187.92" y="-6.13" width="1.74" height="208.8" fill="white"/>
<rect x="194.88" y="-6.13" width="1.74" height="208.8" fill="white"/>
<rect x="201.84" y="-6.13" width="1.74" height="208.8" fill="white"/>
<rect x="208.8" y="-6.13" width="1.74" height="208.8" fill="white"/>
<rect x="215.76" y="-6.13" width="1.74" height="208.8" fill="white"/>
<rect x="222.72" y="-6.13" width="1.74" height="208.8" fill="white"/>
<rect x="229.68" y="-6.13" width="1.74" height="208.8" fill="white"/>
<rect x="236.64" y="-6.13" width="1.74" height="208.8" fill="white"/>
<rect x="243.6" y="-6.13" width="1.74" height="208.8" fill="white"/>
<rect x="250.56" y="-6.13" width="1.74" height="208.8" fill="white"/>
<rect x="257.52" y="-6.13" width="1.74" height="208.8" fill="white"/>
<rect x="264.48" y="-6.13" width="1.74" height="208.8" fill="white"/>
<rect x="271.44" y="-6.13" width="1.74" height="208.8" fill="white"/>
<rect x="0.870117" y="-0.0400391" width="278.4" height="1.74" fill="white"/>
<rect x="0.870117" y="6.92004" width="278.4" height="1.74" fill="white"/>
<rect x="0.870117" y="13.88" width="278.4" height="1.74" fill="white"/>
<rect x="0.870117" y="20.84" width="278.4" height="1.74" fill="white"/>
<rect x="0.870117" y="27.8" width="278.4" height="1.74" fill="white"/>
<rect x="0.870117" y="34.76" width="278.4" height="1.74" fill="white"/>
<rect x="0.870117" y="41.72" width="278.4" height="1.74" fill="white"/>
<rect x="0.870117" y="48.6801" width="278.4" height="1.74" fill="white"/>
<rect x="0.870117" y="55.64" width="278.4" height="1.74" fill="white"/>
<rect x="0.870117" y="62.6" width="278.4" height="1.74" fill="white"/>
<rect x="0.870117" y="69.5601" width="278.4" height="1.74" fill="white"/>
<rect x="0.870117" y="76.52" width="278.4" height="1.74" fill="white"/>
<rect x="0.870117" y="83.48" width="278.4" height="1.74" fill="white"/>
<rect x="0.870117" y="90.4399" width="278.4" height="1.74" fill="white"/>
<rect x="0.870117" y="97.4" width="278.4" height="1.74" fill="white"/>
<rect x="0.870117" y="104.36" width="278.4" height="1.74" fill="white"/>
<rect x="0.870117" y="111.32" width="278.4" height="1.74" fill="white"/>
<rect x="0.870117" y="118.28" width="278.4" height="1.74" fill="white"/>
<rect x="0.870117" y="125.24" width="278.4" height="1.74" fill="white"/>
<rect x="0.870117" y="132.2" width="278.4" height="1.74" fill="white"/>
<rect x="0.870117" y="139.16" width="278.4" height="1.74" fill="white"/>
<rect x="0.870117" y="146.12" width="278.4" height="1.74" fill="white"/>
<rect x="0.870117" y="153.08" width="278.4" height="1.74" fill="white"/>
<rect x="0.870117" y="160.04" width="278.4" height="1.74" fill="white"/>
<rect x="0.870117" y="167" width="278.4" height="1.74" fill="white"/>
<rect x="0.870117" y="173.96" width="278.4" height="1.74" fill="white"/>
<rect x="0.870117" y="180.92" width="278.4" height="1.74" fill="white"/>
<rect x="0.870117" y="187.88" width="278.4" height="1.74" fill="white"/>
<rect x="0.870117" y="194.84" width="278.4" height="1.74" fill="white"/>
<rect x="0.870117" y="201.8" width="278.4" height="1.74" fill="white"/>
</g>
<rect opacity="0.17" x="0.870117" y="153.95" width="278.4" height="6.96" fill="white"/>
<rect opacity="0.17" x="7.83008" y="91.3101" width="104.4" height="34.8" rx="3.48" fill="white"/>
<rect opacity="0.17" x="14.79" y="98.27" width="21.75" height="20.88" rx="10.44" fill="white"/>
<path opacity="0.17" d="M7.83008 134.81C7.83008 133.849 8.6091 133.07 9.57008 133.07H26.9701C27.9311 133.07 28.7101 133.849 28.7101 134.81V145.25C28.7101 146.211 27.9311 146.99 26.9701 146.99H14.7901H12.0308C11.5693 146.99 11.1268 147.173 10.8004 147.5L7.83008 150.47V134.81Z" fill="white"/>
<rect x="7.83008" y="167.87" width="27.84" height="27.84" rx="3.48" fill="white" fill-opacity="0.17"/>
<path d="M16.5298 176.687V186.893C16.5298 187.672 17.4259 188.145 18.1149 187.721L26.4913 182.617C27.129 182.234 27.129 181.347 26.4913 180.952L18.1149 175.859C17.425 175.436 16.5298 175.908 16.5298 176.687Z" fill="white"/>
<rect x="42.6299" y="167.87" width="27.84" height="27.84" rx="3.48" fill="white" fill-opacity="0.17"/>
<path fill-rule="evenodd" clip-rule="evenodd" d="M53.1883 181.56C53.0415 181.707 52.8425 181.789 52.635 181.789C52.4275 181.789 52.2285 181.707 52.0817 181.56L48.9497 178.428C48.8031 178.281 48.7207 178.082 48.7207 177.875C48.7207 177.667 48.8031 177.468 48.9497 177.322L52.0817 174.19C52.1534 174.113 52.2398 174.051 52.3359 174.008C52.4319 173.965 52.5356 173.942 52.6407 173.941C52.7459 173.939 52.8503 173.958 52.9478 173.997C53.0453 174.037 53.1339 174.095 53.2082 174.17C53.2826 174.244 53.3412 174.333 53.3806 174.43C53.4199 174.528 53.4393 174.632 53.4374 174.737C53.4356 174.842 53.4126 174.946 53.3698 175.042C53.327 175.138 53.2653 175.225 53.1883 175.296L50.6105 177.875L53.1883 180.454C53.335 180.6 53.4173 180.799 53.4173 181.007C53.4173 181.214 53.335 181.413 53.1883 181.56Z" fill="white"/>
<path fill-rule="evenodd" clip-rule="evenodd" d="M57.1034 181.56C56.9566 181.707 56.7575 181.789 56.5501 181.789C56.3426 181.789 56.1435 181.707 55.9967 181.56L52.8647 178.428C52.7181 178.282 52.6357 178.083 52.6357 177.875C52.6357 177.668 52.7181 177.469 52.8647 177.322L55.9967 174.19C56.1452 174.051 56.3415 173.976 56.5443 173.98C56.7472 173.983 56.9407 174.065 57.0842 174.209C57.2276 174.352 57.3098 174.546 57.3134 174.749C57.317 174.952 57.2417 175.148 57.1034 175.296L54.5256 177.875L57.1034 180.454C57.25 180.601 57.3324 180.8 57.3324 181.007C57.3324 181.215 57.25 181.414 57.1034 181.56Z" fill="white"/>
<path fill-rule="evenodd" clip-rule="evenodd" d="M55.5875 177.108C55.3482 177.114 55.1464 177.119 54.9837 177.119C54.776 177.119 54.5769 177.201 54.43 177.348C54.2832 177.495 54.2007 177.694 54.2007 177.902C54.2007 178.11 54.2832 178.309 54.43 178.456C54.5769 178.602 54.776 178.685 54.9837 178.685C55.1673 178.685 55.39 178.679 55.6249 178.674L55.718 178.671C55.9911 178.665 56.2861 178.658 56.588 178.658C57.2022 178.658 57.7973 178.685 58.2497 178.775C59.1605 178.955 59.9976 179.401 60.6552 180.057C61.311 180.711 61.7579 181.546 61.9391 182.455C62.1203 183.363 62.0277 184.305 61.6731 185.161C61.3173 186.018 60.7154 186.75 59.9436 187.264C59.1703 187.779 58.2619 188.054 57.3327 188.054C57.125 188.054 56.9259 188.136 56.779 188.283C56.6322 188.43 56.5497 188.629 56.5497 188.837C56.5497 189.045 56.6322 189.244 56.779 189.391C56.9259 189.538 57.125 189.62 57.3327 189.62C58.5712 189.62 59.782 189.254 60.8127 188.567C61.5834 188.055 62.2306 187.379 62.7074 186.586C63.1842 185.793 63.4787 184.904 63.5695 183.983C63.6603 183.062 63.5451 182.133 63.2323 181.262C62.9195 180.391 62.4169 179.601 61.761 178.949C60.8841 178.074 59.7679 177.48 58.5533 177.239C57.9426 177.117 57.2196 177.091 56.5871 177.092C56.2652 177.092 55.9537 177.099 55.6788 177.106L55.5866 177.108H55.5875Z" fill="white"/>
<path d="M48.7202 187.55C48.8098 188.633 49.8886 189.62 51.4607 189.62C53.145 189.62 54.2012 188.538 54.2012 187.242C54.2012 185.799 53.1572 184.951 51.7078 184.951C51.191 184.951 50.629 185.12 50.3158 185.427L50.7647 183.687H53.8419V182.573H49.8547L48.9551 186.043L50.2244 186.478C50.4828 186.203 50.9204 186.001 51.4372 186.001C52.1785 186.001 52.8414 186.425 52.8414 187.274C52.8414 188.038 52.2237 188.527 51.4598 188.527C50.6177 188.527 50.0444 187.975 49.9887 187.242L48.7202 187.55Z" fill="white"/>
<rect x="77.4302" y="167.87" width="27.84" height="27.84" rx="3.48" fill="white" fill-opacity="0.17"/>
<path fill-rule="evenodd" clip-rule="evenodd" d="M90.0139 174.19C90.1607 174.043 90.3597 173.961 90.5672 173.961C90.7747 173.961 90.9737 174.043 91.1205 174.19L94.2525 177.322C94.3991 177.468 94.4815 177.668 94.4815 177.875C94.4815 178.083 94.3991 178.282 94.2525 178.428L91.1205 181.56C91.0488 181.637 90.9624 181.699 90.8663 181.742C90.7703 181.785 90.6666 181.808 90.5615 181.809C90.4563 181.811 90.3519 181.792 90.2544 181.753C90.1569 181.713 90.0683 181.655 89.994 181.58C89.9196 181.506 89.861 181.417 89.8216 181.32C89.7823 181.222 89.7629 181.118 89.7648 181.013C89.7666 180.908 89.7896 180.804 89.8324 180.708C89.8752 180.612 89.9369 180.525 90.0139 180.454L92.5917 177.875L90.0139 175.296C89.8672 175.15 89.7849 174.951 89.7849 174.743C89.7849 174.536 89.8672 174.336 90.0139 174.19V174.19Z" fill="white"/>
<path fill-rule="evenodd" clip-rule="evenodd" d="M93.9289 174.19C94.0757 174.043 94.2747 173.961 94.4822 173.961C94.6897 173.961 94.8887 174.043 95.0355 174.19L98.1675 177.322C98.3142 177.468 98.3965 177.668 98.3965 177.875C98.3965 178.083 98.3142 178.282 98.1675 178.428L95.0355 181.56C94.9639 181.637 94.8774 181.699 94.7814 181.742C94.6853 181.785 94.5816 181.808 94.4765 181.809C94.3714 181.811 94.2669 181.792 94.1694 181.753C94.0719 181.713 93.9834 181.655 93.909 181.58C93.8347 181.506 93.7761 181.417 93.7367 181.32C93.6973 181.222 93.678 181.118 93.6798 181.013C93.6817 180.908 93.7047 180.804 93.7475 180.708C93.7903 180.612 93.852 180.525 93.9289 180.454L96.5067 177.875L93.9289 175.296C93.7823 175.15 93.6999 174.951 93.6999 174.743C93.6999 174.536 93.7823 174.336 93.9289 174.19V174.19Z" fill="white"/>
<path d="M92.9159 187.55C93.0055 188.633 94.0834 189.62 95.6564 189.62C97.3407 189.62 98.3969 188.538 98.3969 187.242C98.3969 185.799 97.3529 184.951 95.9035 184.951C95.3867 184.951 94.8247 185.12 94.5115 185.427L94.9595 183.687H98.0376V182.573H94.0504L93.1517 186.043L94.421 186.478C94.6794 186.203 95.117 186.001 95.6338 186.001C96.375 186.001 97.038 186.425 97.038 187.274C97.038 188.038 96.4203 188.527 95.6564 188.527C94.8142 188.527 94.2409 187.975 94.1852 187.242L92.915 187.55H92.9159Z" fill="white"/>
<path fill-rule="evenodd" clip-rule="evenodd" d="M91.5293 177.108C91.7685 177.114 91.9704 177.119 92.133 177.119C92.3407 177.119 92.5399 177.201 92.6867 177.348C92.8336 177.495 92.916 177.694 92.916 177.902C92.916 178.11 92.8336 178.309 92.6867 178.456C92.5399 178.602 92.3407 178.685 92.133 178.685C91.9495 178.685 91.7268 178.679 91.4919 178.674L91.3988 178.671C91.1088 178.663 90.8188 178.659 90.5288 178.658C89.9145 178.658 89.3195 178.685 88.8671 178.775C87.9562 178.955 87.1192 179.401 86.4615 180.057C85.8057 180.711 85.3589 181.546 85.1777 182.455C84.9965 183.363 85.089 184.305 85.4436 185.161C85.7994 186.018 86.4013 186.75 87.1732 187.264C87.9464 187.779 88.8549 188.054 89.784 188.054C89.9917 188.054 90.1909 188.136 90.3377 188.283C90.4846 188.43 90.567 188.629 90.567 188.837C90.567 189.045 90.4846 189.244 90.3377 189.391C90.1909 189.537 89.9917 189.62 89.784 189.62C88.5456 189.62 87.3347 189.254 86.304 188.567C85.2744 187.881 84.4715 186.905 83.9968 185.762C83.5219 184.62 83.3975 183.362 83.6395 182.148C83.8815 180.935 84.4789 179.821 85.3557 178.948C86.2327 178.074 87.3485 177.48 88.5626 177.24C89.1733 177.118 89.8963 177.092 90.5288 177.093C90.8507 177.093 91.1621 177.1 91.437 177.107L91.5293 177.109V177.108Z" fill="white"/>
<rect x="112.23" y="167.87" width="27.84" height="27.84" rx="3.48" fill="white" fill-opacity="0.17"/>
<path fill-rule="evenodd" clip-rule="evenodd" d="M131.073 175.955C131.236 175.792 131.457 175.7 131.688 175.7C131.918 175.7 132.14 175.792 132.303 175.955C133.934 177.586 134.851 179.799 134.851 182.106C134.851 184.413 133.934 186.626 132.303 188.258C132.222 188.338 132.126 188.403 132.021 188.446C131.915 188.49 131.802 188.513 131.688 188.513C131.573 188.513 131.46 188.49 131.355 188.447C131.249 188.403 131.153 188.339 131.072 188.258C130.991 188.177 130.927 188.081 130.883 187.976C130.84 187.87 130.817 187.757 130.817 187.643C130.817 187.529 130.84 187.415 130.883 187.31C130.927 187.204 130.991 187.108 131.072 187.027C132.377 185.722 133.11 183.952 133.11 182.106C133.11 180.26 132.377 178.49 131.072 177.185C130.909 177.022 130.817 176.801 130.817 176.57C130.817 176.339 130.909 176.118 131.072 175.955H131.073ZM125.745 175.841C125.892 175.912 126.017 176.023 126.104 176.161C126.191 176.3 126.238 176.46 126.238 176.624V187.588C126.238 187.752 126.192 187.912 126.105 188.051C126.017 188.19 125.893 188.301 125.745 188.372C125.597 188.443 125.432 188.471 125.269 188.452C125.107 188.434 124.952 188.37 124.824 188.267L121.148 185.326H118.32C118.089 185.326 117.868 185.234 117.705 185.071C117.542 184.908 117.45 184.686 117.45 184.456V179.758C117.45 179.527 117.542 179.306 117.705 179.143C117.868 178.979 118.089 178.888 118.32 178.888H121.148L124.824 175.945C124.952 175.843 125.107 175.779 125.269 175.76C125.432 175.742 125.597 175.77 125.745 175.841V175.841ZM124.498 178.435L121.996 180.436C121.842 180.56 121.65 180.628 121.452 180.628H119.19V183.586H121.452C121.65 183.586 121.842 183.653 121.996 183.776L124.498 185.777V178.434V178.435ZM128.309 178.719C128.472 178.556 128.693 178.464 128.924 178.464C129.154 178.464 129.376 178.556 129.539 178.719C130.436 179.616 130.94 180.833 130.94 182.102C130.94 183.371 130.436 184.588 129.539 185.486C129.376 185.649 129.154 185.741 128.924 185.741C128.693 185.741 128.471 185.649 128.308 185.486C128.145 185.323 128.053 185.102 128.053 184.871C128.053 184.64 128.145 184.419 128.308 184.256C128.591 183.973 128.815 183.637 128.968 183.268C129.121 182.898 129.2 182.502 129.2 182.102C129.2 181.702 129.121 181.306 128.968 180.937C128.815 180.568 128.591 180.232 128.308 179.949C128.145 179.786 128.053 179.565 128.053 179.334C128.053 179.103 128.145 178.882 128.308 178.719H128.309Z" fill="white"/>
</g>
<defs>
<clipPath id="clip0_13_420">
<rect width="280.14" height="210.54" fill="white" transform="translate(0 -7)"/>
</clipPath>
</defs>
</svg>
