<svg width="483" height="363" viewBox="0 0 483 363" fill="none" xmlns="http://www.w3.org/2000/svg">
<g clip-path="url(#clip0_13_522)">
<g opacity="0.14">
<rect y="1.5" width="3" height="360" fill="white"/>
<rect x="12" y="1.5" width="3" height="360" fill="white"/>
<rect x="24" y="1.5" width="3" height="360" fill="white"/>
<rect x="36" y="1.5" width="3" height="360" fill="white"/>
<rect x="48" y="1.5" width="3" height="360" fill="white"/>
<rect x="60" y="1.5" width="3" height="360" fill="white"/>
<rect x="72" y="1.5" width="3" height="360" fill="white"/>
<rect x="84" y="1.5" width="3" height="360" fill="white"/>
<rect x="96" y="1.5" width="3" height="360" fill="white"/>
<rect x="108" y="1.5" width="3" height="360" fill="white"/>
<rect x="120" y="1.5" width="3" height="360" fill="white"/>
<rect x="132" y="1.5" width="3" height="360" fill="white"/>
<rect x="144" y="1.5" width="3" height="360" fill="white"/>
<rect x="156" y="1.5" width="3" height="360" fill="white"/>
<rect x="168" y="1.5" width="3" height="360" fill="white"/>
<rect x="180" y="1.5" width="3" height="360" fill="white"/>
<rect x="192" y="1.5" width="3" height="360" fill="white"/>
<rect x="204" y="1.5" width="3" height="360" fill="white"/>
<rect x="216" y="1.5" width="3" height="360" fill="white"/>
<rect x="228" y="1.5" width="3" height="360" fill="white"/>
<rect x="240" y="1.5" width="3" height="360" fill="white"/>
<rect x="252" y="1.5" width="3" height="360" fill="white"/>
<rect x="264" y="1.5" width="3" height="360" fill="white"/>
<rect x="276" y="1.5" width="3" height="360" fill="white"/>
<rect x="288" y="1.5" width="3" height="360" fill="white"/>
<rect x="300" y="1.5" width="3" height="360" fill="white"/>
<rect x="312" y="1.5" width="3" height="360" fill="white"/>
<rect x="324" y="1.5" width="3" height="360" fill="white"/>
<rect x="336" y="1.5" width="3" height="360" fill="white"/>
<rect x="348" y="1.5" width="3" height="360" fill="white"/>
<rect x="360" y="1.5" width="3" height="360" fill="white"/>
<rect x="372" y="1.5" width="3" height="360" fill="white"/>
<rect x="384" y="1.5" width="3" height="360" fill="white"/>
<rect x="396" y="1.5" width="3" height="360" fill="white"/>
<rect x="408" y="1.5" width="3" height="360" fill="white"/>
<rect x="420" y="1.5" width="3" height="360" fill="white"/>
<rect x="432" y="1.5" width="3" height="360" fill="white"/>
<rect x="444" y="1.5" width="3" height="360" fill="white"/>
<rect x="456" y="1.5" width="3" height="360" fill="white"/>
<rect x="468" y="1.5" width="3" height="360" fill="white"/>
<rect x="480" y="1.5" width="3" height="360" fill="white"/>
<rect x="1.5" width="480" height="3" fill="white"/>
<rect x="1.5" y="12" width="480" height="3" fill="white"/>
<rect x="1.5" y="24" width="480" height="3" fill="white"/>
<rect x="1.5" y="36" width="480" height="3" fill="white"/>
<rect x="1.5" y="48" width="480" height="3" fill="white"/>
<rect x="1.5" y="60" width="480" height="3" fill="white"/>
<rect x="1.5" y="72" width="480" height="3" fill="white"/>
<rect x="1.5" y="84" width="480" height="3" fill="white"/>
<rect x="1.5" y="96" width="480" height="3" fill="white"/>
<rect x="1.5" y="108" width="480" height="3" fill="white"/>
<rect x="1.5" y="120" width="480" height="3" fill="white"/>
<rect x="1.5" y="132" width="480" height="3" fill="white"/>
<rect x="1.5" y="144" width="480" height="3" fill="white"/>
<rect x="1.5" y="156" width="480" height="3" fill="white"/>
<rect x="1.5" y="168" width="480" height="3" fill="white"/>
<rect x="1.5" y="180" width="480" height="3" fill="white"/>
<rect x="1.5" y="192" width="480" height="3" fill="white"/>
<rect x="1.5" y="204" width="480" height="3" fill="white"/>
<rect x="1.5" y="216" width="480" height="3" fill="white"/>
<rect x="1.5" y="228" width="480" height="3" fill="white"/>
<rect x="1.5" y="240" width="480" height="3" fill="white"/>
<rect x="1.5" y="252" width="480" height="3" fill="white"/>
<rect x="1.5" y="264" width="480" height="3" fill="white"/>
<rect x="1.5" y="276" width="480" height="3" fill="white"/>
<rect x="1.5" y="288" width="480" height="3" fill="white"/>
<rect x="1.5" y="300" width="480" height="3" fill="white"/>
<rect x="1.5" y="312" width="480" height="3" fill="white"/>
<rect x="1.5" y="324" width="480" height="3" fill="white"/>
<rect x="1.5" y="336" width="480" height="3" fill="white"/>
<rect x="1.5" y="348" width="480" height="3" fill="white"/>
<rect x="1.5" y="360" width="480" height="3" fill="white"/>
</g>
<rect opacity="0.17" x="1.5" y="277.5" width="480" height="12" fill="white"/>
<rect opacity="0.17" x="13.5" y="169.5" width="180" height="60" rx="6" fill="white"/>
<rect opacity="0.17" x="25.5" y="181.5" width="37.5" height="36" rx="18" fill="white"/>
<path opacity="0.17" d="M13.5 244.5C13.5 242.843 14.8431 241.5 16.5 241.5H46.5C48.1569 241.5 49.5 242.843 49.5 244.5V262.5C49.5 264.157 48.1569 265.5 46.5 265.5H25.5H20.7426C19.947 265.5 19.1839 265.816 18.6213 266.379L13.5 271.5V244.5Z" fill="white"/>
<rect x="13.5" y="301.5" width="48" height="48" rx="6" fill="white" fill-opacity="0.17"/>
<path d="M28.5 316.701V334.299C28.5 335.642 30.045 336.456 31.233 335.726L45.675 326.927C46.7745 326.265 46.7745 324.737 45.675 324.056L31.233 315.275C30.0435 314.544 28.5 315.359 28.5 316.701Z" fill="white"/>
<rect x="73.5" y="301.5" width="48" height="48" rx="6" fill="white" fill-opacity="0.17"/>
<path fill-rule="evenodd" clip-rule="evenodd" d="M91.7043 325.104C91.4512 325.357 91.108 325.499 90.7503 325.499C90.3925 325.499 90.0494 325.357 89.7963 325.104L84.3963 319.704C84.1435 319.451 84.0015 319.108 84.0015 318.75C84.0015 318.392 84.1435 318.049 84.3963 317.796L89.7963 312.396C89.9199 312.263 90.0689 312.157 90.2345 312.083C90.4001 312.009 90.5789 311.97 90.7601 311.967C90.9414 311.963 91.1215 311.997 91.2896 312.065C91.4577 312.132 91.6104 312.234 91.7385 312.362C91.8667 312.49 91.9678 312.643 92.0357 312.811C92.1036 312.979 92.1369 313.159 92.1337 313.34C92.1305 313.521 92.0909 313.7 92.0171 313.866C91.9433 314.031 91.8369 314.18 91.7043 314.304L87.2598 318.75L91.7043 323.196C91.9571 323.449 92.0991 323.792 92.0991 324.15C92.0991 324.508 91.9571 324.851 91.7043 325.104Z" fill="white"/>
<path fill-rule="evenodd" clip-rule="evenodd" d="M98.4543 325.104C98.2012 325.357 97.858 325.499 97.5003 325.499C97.1425 325.499 96.7994 325.357 96.5463 325.104L91.1463 319.704C90.8935 319.451 90.7515 319.108 90.7515 318.75C90.7515 318.392 90.8935 318.049 91.1463 317.796L96.5463 312.396C96.8022 312.158 97.1407 312.028 97.4904 312.034C97.8402 312.04 98.1739 312.182 98.4212 312.429C98.6685 312.676 98.8102 313.01 98.8164 313.36C98.8226 313.71 98.6927 314.048 98.4543 314.304L94.0098 318.75L98.4543 323.196C98.7071 323.449 98.8491 323.792 98.8491 324.15C98.8491 324.508 98.7071 324.851 98.4543 325.104Z" fill="white"/>
<path fill-rule="evenodd" clip-rule="evenodd" d="M95.8407 317.427C95.4282 317.437 95.0802 317.446 94.7997 317.446C94.4417 317.446 94.0983 317.589 93.8451 317.842C93.5919 318.095 93.4497 318.438 93.4497 318.796C93.4497 319.155 93.5919 319.498 93.8451 319.751C94.0983 320.004 94.4417 320.146 94.7997 320.146C95.1162 320.146 95.5002 320.136 95.9052 320.127L96.0657 320.122C96.5367 320.112 97.0452 320.1 97.5657 320.1C98.6247 320.1 99.6507 320.146 100.431 320.301C102.001 320.612 103.444 321.382 104.578 322.512C105.709 323.64 106.479 325.079 106.792 326.646C107.104 328.212 106.945 329.837 106.333 331.312C105.72 332.789 104.682 334.051 103.351 334.938C102.018 335.826 100.452 336.3 98.8497 336.3C98.4917 336.3 98.1483 336.442 97.8951 336.695C97.6419 336.949 97.4997 337.292 97.4997 337.65C97.4997 338.008 97.6419 338.351 97.8951 338.605C98.1483 338.858 98.4917 339 98.8497 339C100.985 339.001 103.073 338.369 104.85 337.185C106.179 336.302 107.294 335.135 108.117 333.768C108.939 332.401 109.446 330.869 109.603 329.281C109.759 327.694 109.561 326.091 109.021 324.59C108.482 323.089 107.616 321.726 106.485 320.601C104.973 319.094 103.048 318.068 100.954 317.653C99.9012 317.443 98.6547 317.398 97.5642 317.4C97.0092 317.4 96.4722 317.412 95.9982 317.424L95.8392 317.427H95.8407Z" fill="white"/>
<path d="M84 335.432C84.1545 337.299 86.0145 339 88.725 339C91.629 339 93.45 337.134 93.45 334.901C93.45 332.412 91.65 330.95 89.151 330.95C88.26 330.95 87.291 331.242 86.751 331.772L87.525 328.772H92.8305V326.85H85.956L84.405 332.834L86.5935 333.584C87.039 333.108 87.7935 332.76 88.6845 332.76C89.9625 332.76 91.1055 333.492 91.1055 334.956C91.1055 336.273 90.0405 337.116 88.7235 337.116C87.2715 337.116 86.283 336.164 86.187 334.901L84 335.432Z" fill="white"/>
<rect x="133.5" y="301.5" width="48" height="48" rx="6" fill="white" fill-opacity="0.17"/>
<path fill-rule="evenodd" clip-rule="evenodd" d="M155.196 312.396C155.449 312.143 155.793 312.001 156.15 312.001C156.508 312.001 156.851 312.143 157.104 312.396L162.504 317.796C162.757 318.049 162.899 318.392 162.899 318.75C162.899 319.108 162.757 319.451 162.504 319.704L157.104 325.104C156.981 325.237 156.832 325.343 156.666 325.417C156.5 325.491 156.322 325.53 156.14 325.533C155.959 325.537 155.779 325.503 155.611 325.435C155.443 325.368 155.29 325.266 155.162 325.138C155.034 325.01 154.933 324.857 154.865 324.689C154.797 324.521 154.764 324.341 154.767 324.16C154.77 323.979 154.81 323.8 154.883 323.634C154.957 323.469 155.064 323.32 155.196 323.196L159.641 318.75L155.196 314.304C154.943 314.051 154.801 313.708 154.801 313.35C154.801 312.992 154.943 312.649 155.196 312.396V312.396Z" fill="white"/>
<path fill-rule="evenodd" clip-rule="evenodd" d="M161.946 312.396C162.199 312.143 162.543 312.001 162.9 312.001C163.258 312.001 163.601 312.143 163.854 312.396L169.254 317.796C169.507 318.049 169.649 318.392 169.649 318.75C169.649 319.108 169.507 319.451 169.254 319.704L163.854 325.104C163.731 325.237 163.582 325.343 163.416 325.417C163.25 325.491 163.072 325.53 162.89 325.533C162.709 325.537 162.529 325.503 162.361 325.435C162.193 325.368 162.04 325.266 161.912 325.138C161.784 325.01 161.683 324.857 161.615 324.689C161.547 324.521 161.514 324.341 161.517 324.16C161.52 323.979 161.56 323.8 161.633 323.634C161.707 323.469 161.814 323.32 161.946 323.196L166.391 318.75L161.946 314.304C161.693 314.051 161.551 313.708 161.551 313.35C161.551 312.992 161.693 312.649 161.946 312.396V312.396Z" fill="white"/>
<path d="M160.2 335.432C160.354 337.299 162.213 339 164.925 339C167.829 339 169.65 337.134 169.65 334.901C169.65 332.412 167.85 330.95 165.351 330.95C164.46 330.95 163.491 331.242 162.951 331.772L163.723 328.772H169.03V326.85H162.156L160.606 332.834L162.795 333.584C163.24 333.108 163.995 332.76 164.886 332.76C166.164 332.76 167.307 333.492 167.307 334.956C167.307 336.273 166.242 337.116 164.925 337.116C163.473 337.116 162.484 336.164 162.388 334.901L160.198 335.432H160.2Z" fill="white"/>
<path fill-rule="evenodd" clip-rule="evenodd" d="M157.809 317.427C158.222 317.437 158.57 317.446 158.85 317.446C159.208 317.446 159.552 317.589 159.805 317.842C160.058 318.095 160.2 318.438 160.2 318.796C160.2 319.155 160.058 319.498 159.805 319.751C159.552 320.004 159.208 320.146 158.85 320.146C158.534 320.146 158.15 320.136 157.745 320.127L157.584 320.122C157.084 320.109 156.584 320.101 156.084 320.1C155.025 320.1 153.999 320.146 153.219 320.301C151.649 320.612 150.206 321.382 149.072 322.512C147.941 323.64 147.171 325.079 146.858 326.646C146.546 328.212 146.705 329.837 147.317 331.312C147.93 332.789 148.968 334.051 150.299 334.938C151.632 335.826 153.198 336.3 154.8 336.3C155.158 336.3 155.502 336.442 155.755 336.695C156.008 336.949 156.15 337.292 156.15 337.65C156.15 338.008 156.008 338.351 155.755 338.605C155.502 338.858 155.158 339 154.8 339C152.665 339.001 150.577 338.369 148.8 337.185C147.025 336.002 145.641 334.319 144.822 332.349C144.003 330.379 143.789 328.21 144.206 326.118C144.623 324.026 145.653 322.105 147.165 320.599C148.677 319.094 150.601 318.069 152.694 317.655C153.747 317.445 154.994 317.4 156.084 317.401C156.639 317.401 157.176 317.413 157.65 317.425L157.809 317.428V317.427Z" fill="white"/>
<rect x="193.5" y="301.5" width="48" height="48" rx="6" fill="white" fill-opacity="0.17"/>
<path fill-rule="evenodd" clip-rule="evenodd" d="M225.987 315.44C226.268 315.158 226.65 315 227.047 315C227.445 315 227.827 315.158 228.108 315.44C230.921 318.253 232.501 322.067 232.501 326.045C232.501 330.023 230.921 333.838 228.108 336.651C227.969 336.79 227.803 336.901 227.621 336.976C227.439 337.052 227.244 337.091 227.047 337.091C226.85 337.091 226.655 337.052 226.473 336.977C226.291 336.902 226.126 336.791 225.986 336.652C225.847 336.513 225.736 336.347 225.661 336.165C225.585 335.983 225.547 335.788 225.546 335.591C225.546 335.394 225.585 335.199 225.66 335.017C225.736 334.835 225.846 334.669 225.985 334.53C228.236 332.28 229.5 329.228 229.5 326.045C229.5 322.863 228.236 319.811 225.985 317.561C225.704 317.279 225.546 316.898 225.546 316.5C225.546 316.102 225.704 315.721 225.985 315.44H225.987ZM216.801 315.243C217.055 315.365 217.27 315.557 217.421 315.796C217.571 316.034 217.651 316.311 217.651 316.593V335.496C217.652 335.779 217.572 336.056 217.421 336.295C217.271 336.534 217.056 336.726 216.801 336.849C216.547 336.971 216.262 337.019 215.982 336.987C215.701 336.955 215.435 336.844 215.214 336.668L208.875 331.596H204C203.602 331.596 203.221 331.438 202.939 331.157C202.658 330.875 202.5 330.494 202.5 330.096V321.996C202.5 321.598 202.658 321.217 202.939 320.935C203.221 320.654 203.602 320.496 204 320.496H208.875L215.214 315.423C215.435 315.247 215.701 315.136 215.982 315.104C216.262 315.072 216.546 315.121 216.801 315.243V315.243ZM214.651 319.716L210.337 323.166C210.072 323.379 209.741 323.496 209.4 323.496H205.5V328.596H209.4C209.741 328.596 210.071 328.712 210.337 328.925L214.651 332.375V319.715V319.716ZM221.221 320.205C221.503 319.924 221.884 319.766 222.282 319.766C222.68 319.766 223.061 319.924 223.343 320.205C224.89 321.752 225.759 323.851 225.759 326.039C225.759 328.227 224.89 330.325 223.343 331.872C223.061 332.154 222.68 332.312 222.282 332.312C221.884 332.312 221.502 332.154 221.221 331.873C220.939 331.592 220.781 331.21 220.781 330.812C220.781 330.414 220.939 330.033 221.22 329.751C221.708 329.264 222.094 328.685 222.358 328.048C222.622 327.411 222.758 326.728 222.758 326.039C222.758 325.349 222.622 324.666 222.358 324.029C222.094 323.392 221.708 322.814 221.22 322.326C220.939 322.045 220.781 321.663 220.781 321.266C220.781 320.868 220.939 320.486 221.22 320.205H221.221Z" fill="white"/>
</g>
<defs>
<clipPath id="clip0_13_522">
<rect width="483" height="363" fill="white"/>
</clipPath>
</defs>
</svg>
