<svg width="322" height="242" viewBox="0 0 322 242" fill="none" xmlns="http://www.w3.org/2000/svg">
<g clip-path="url(#clip0_13_624)">
<g opacity="0.14">
<rect y="1" width="2" height="240" fill="white"/>
<rect x="8" y="1" width="2" height="240" fill="white"/>
<rect x="16" y="1" width="2" height="240" fill="white"/>
<rect x="24" y="1" width="2" height="240" fill="white"/>
<rect x="32" y="1" width="2" height="240" fill="white"/>
<rect x="40" y="1" width="2" height="240" fill="white"/>
<rect x="48" y="1" width="2" height="240" fill="white"/>
<rect x="56" y="1" width="2" height="240" fill="white"/>
<rect x="64" y="1" width="2" height="240" fill="white"/>
<rect x="72" y="1" width="2" height="240" fill="white"/>
<rect x="80" y="1" width="2" height="240" fill="white"/>
<rect x="88" y="1" width="2" height="240" fill="white"/>
<rect x="96" y="1" width="2" height="240" fill="white"/>
<rect x="104" y="1" width="2" height="240" fill="white"/>
<rect x="112" y="1" width="2" height="240" fill="white"/>
<rect x="120" y="1" width="2" height="240" fill="white"/>
<rect x="128" y="1" width="2" height="240" fill="white"/>
<rect x="136" y="1" width="2" height="240" fill="white"/>
<rect x="144" y="1" width="2" height="240" fill="white"/>
<rect x="152" y="1" width="2" height="240" fill="white"/>
<rect x="160" y="1" width="2" height="240" fill="white"/>
<rect x="168" y="1" width="2" height="240" fill="white"/>
<rect x="176" y="1" width="2" height="240" fill="white"/>
<rect x="184" y="1" width="2" height="240" fill="white"/>
<rect x="192" y="1" width="2" height="240" fill="white"/>
<rect x="200" y="1" width="2" height="240" fill="white"/>
<rect x="208" y="1" width="2" height="240" fill="white"/>
<rect x="216" y="1" width="2" height="240" fill="white"/>
<rect x="224" y="1" width="2" height="240" fill="white"/>
<rect x="232" y="1" width="2" height="240" fill="white"/>
<rect x="240" y="1" width="2" height="240" fill="white"/>
<rect x="248" y="1" width="2" height="240" fill="white"/>
<rect x="256" y="1" width="2" height="240" fill="white"/>
<rect x="264" y="1" width="2" height="240" fill="white"/>
<rect x="272" y="1" width="2" height="240" fill="white"/>
<rect x="280" y="1" width="2" height="240" fill="white"/>
<rect x="288" y="1" width="2" height="240" fill="white"/>
<rect x="296" y="1" width="2" height="240" fill="white"/>
<rect x="304" y="1" width="2" height="240" fill="white"/>
<rect x="312" y="1" width="2" height="240" fill="white"/>
<rect x="320" y="1" width="2" height="240" fill="white"/>
<rect x="1" width="320" height="2" fill="white"/>
<rect x="1" y="8" width="320" height="2" fill="white"/>
<rect x="1" y="16" width="320" height="2" fill="white"/>
<rect x="1" y="24" width="320" height="2" fill="white"/>
<rect x="1" y="32" width="320" height="2" fill="white"/>
<rect x="1" y="40" width="320" height="2" fill="white"/>
<rect x="1" y="48" width="320" height="2" fill="white"/>
<rect x="1" y="56" width="320" height="2" fill="white"/>
<rect x="1" y="64" width="320" height="2" fill="white"/>
<rect x="1" y="72" width="320" height="2" fill="white"/>
<rect x="1" y="80" width="320" height="2" fill="white"/>
<rect x="1" y="88" width="320" height="2" fill="white"/>
<rect x="1" y="96" width="320" height="2" fill="white"/>
<rect x="1" y="104" width="320" height="2" fill="white"/>
<rect x="1" y="112" width="320" height="2" fill="white"/>
<rect x="1" y="120" width="320" height="2" fill="white"/>
<rect x="1" y="128" width="320" height="2" fill="white"/>
<rect x="1" y="136" width="320" height="2" fill="white"/>
<rect x="1" y="144" width="320" height="2" fill="white"/>
<rect x="1" y="152" width="320" height="2" fill="white"/>
<rect x="1" y="160" width="320" height="2" fill="white"/>
<rect x="1" y="168" width="320" height="2" fill="white"/>
<rect x="1" y="176" width="320" height="2" fill="white"/>
<rect x="1" y="184" width="320" height="2" fill="white"/>
<rect x="1" y="192" width="320" height="2" fill="white"/>
<rect x="1" y="200" width="320" height="2" fill="white"/>
<rect x="1" y="208" width="320" height="2" fill="white"/>
<rect x="1" y="216" width="320" height="2" fill="white"/>
<rect x="1" y="224" width="320" height="2" fill="white"/>
<rect x="1" y="232" width="320" height="2" fill="white"/>
<rect x="1" y="240" width="320" height="2" fill="white"/>
</g>
<rect opacity="0.17" x="1" y="185" width="320" height="8" fill="white"/>
<rect opacity="0.17" x="9" y="113" width="120" height="40" rx="4" fill="white"/>
<rect opacity="0.17" x="17" y="121" width="25" height="24" rx="12" fill="white"/>
<path opacity="0.17" d="M9 163C9 161.895 9.89543 161 11 161H31C32.1046 161 33 161.895 33 163V175C33 176.105 32.1046 177 31 177H17H13.8284C13.298 177 12.7893 177.211 12.4142 177.586L9 181V163Z" fill="white"/>
<rect x="9" y="201" width="32" height="32" rx="4" fill="white" fill-opacity="0.17"/>
<path d="M19 211.134V222.866C19 223.761 20.03 224.304 20.822 223.817L30.45 217.951C31.183 217.51 31.183 216.491 30.45 216.037L20.822 210.183C20.029 209.696 19 210.239 19 211.134Z" fill="white"/>
<rect x="49" y="201" width="32" height="32" rx="4" fill="white" fill-opacity="0.17"/>
<path fill-rule="evenodd" clip-rule="evenodd" d="M61.1362 216.736C60.9674 216.905 60.7387 216.999 60.5002 216.999C60.2617 216.999 60.0329 216.905 59.8642 216.736L56.2642 213.136C56.0956 212.967 56.001 212.738 56.001 212.5C56.001 212.261 56.0956 212.033 56.2642 211.864L59.8642 208.264C59.9466 208.176 60.0459 208.105 60.1563 208.055C60.2667 208.006 60.3859 207.98 60.5068 207.978C60.6276 207.976 60.7476 207.998 60.8597 208.043C60.9718 208.088 61.0736 208.156 61.159 208.241C61.2445 208.327 61.3119 208.428 61.3571 208.54C61.4024 208.653 61.4246 208.773 61.4225 208.893C61.4204 209.014 61.3939 209.133 61.3447 209.244C61.2955 209.354 61.2246 209.454 61.1362 209.536L58.1732 212.5L61.1362 215.464C61.3047 215.633 61.3994 215.861 61.3994 216.1C61.3994 216.338 61.3047 216.567 61.1362 216.736Z" fill="white"/>
<path fill-rule="evenodd" clip-rule="evenodd" d="M65.6362 216.736C65.4674 216.905 65.2387 216.999 65.0002 216.999C64.7617 216.999 64.5329 216.905 64.3642 216.736L60.7642 213.136C60.5956 212.967 60.501 212.739 60.501 212.5C60.501 212.262 60.5956 212.033 60.7642 211.864L64.3642 208.264C64.5348 208.105 64.7605 208.018 64.9936 208.023C65.2268 208.027 65.4492 208.121 65.6141 208.286C65.779 208.451 65.8735 208.673 65.8776 208.907C65.8817 209.14 65.7952 209.365 65.6362 209.536L62.6732 212.5L65.6362 215.464C65.8047 215.633 65.8994 215.862 65.8994 216.1C65.8994 216.339 65.8047 216.567 65.6362 216.736Z" fill="white"/>
<path fill-rule="evenodd" clip-rule="evenodd" d="M63.8938 211.618C63.6188 211.625 63.3868 211.631 63.1998 211.631C62.9611 211.631 62.7322 211.726 62.5634 211.895C62.3946 212.063 62.2998 212.292 62.2998 212.531C62.2998 212.77 62.3946 212.999 62.5634 213.167C62.7322 213.336 62.9611 213.431 63.1998 213.431C63.4108 213.431 63.6668 213.424 63.9368 213.418L64.0438 213.415C64.3578 213.408 64.6968 213.4 65.0438 213.4C65.7498 213.4 66.4338 213.431 66.9538 213.534C68.0008 213.742 68.9629 214.254 69.7188 215.008C70.4726 215.76 70.9862 216.719 71.1945 217.764C71.4028 218.808 71.2964 219.891 70.8888 220.875C70.4799 221.86 69.788 222.701 68.9008 223.292C68.012 223.884 66.9678 224.2 65.8998 224.2C65.6611 224.2 65.4322 224.295 65.2634 224.464C65.0946 224.632 64.9998 224.861 64.9998 225.1C64.9998 225.339 65.0946 225.568 65.2634 225.736C65.4322 225.905 65.6611 226 65.8998 226C67.3234 226 68.7152 225.579 69.8998 224.79C70.7857 224.202 71.5296 223.424 72.0777 222.512C72.6257 221.601 72.9642 220.579 73.0685 219.521C73.1729 218.462 73.0405 217.394 72.6809 216.393C72.3214 215.392 71.7438 214.484 70.9898 213.734C69.9819 212.729 68.6989 212.045 67.3028 211.769C66.6008 211.629 65.7698 211.599 65.0428 211.6C64.6728 211.6 64.3148 211.608 63.9988 211.616L63.8928 211.618H63.8938Z" fill="white"/>
<path d="M56 223.621C56.103 224.866 57.343 226 59.15 226C61.086 226 62.3 224.756 62.3 223.267C62.3 221.608 61.1 220.633 59.434 220.633C58.84 220.633 58.194 220.828 57.834 221.181L58.35 219.181H61.887V217.9H57.304L56.27 221.889L57.729 222.389C58.026 222.072 58.529 221.84 59.123 221.84C59.975 221.84 60.737 222.328 60.737 223.304C60.737 224.182 60.027 224.744 59.149 224.744C58.181 224.744 57.522 224.109 57.458 223.267L56 223.621Z" fill="white"/>
<rect x="89" y="201" width="32" height="32" rx="4" fill="white" fill-opacity="0.17"/>
<path fill-rule="evenodd" clip-rule="evenodd" d="M103.464 208.264C103.633 208.095 103.862 208.001 104.1 208.001C104.339 208.001 104.567 208.095 104.736 208.264L108.336 211.864C108.505 212.033 108.599 212.262 108.599 212.5C108.599 212.739 108.505 212.967 108.336 213.136L104.736 216.736C104.654 216.824 104.554 216.895 104.444 216.945C104.334 216.994 104.214 217.02 104.094 217.022C103.973 217.024 103.853 217.002 103.741 216.957C103.629 216.912 103.527 216.844 103.441 216.759C103.356 216.673 103.289 216.572 103.243 216.46C103.198 216.347 103.176 216.227 103.178 216.107C103.18 215.986 103.206 215.867 103.256 215.756C103.305 215.646 103.376 215.546 103.464 215.464L106.427 212.5L103.464 209.536C103.296 209.367 103.201 209.139 103.201 208.9C103.201 208.662 103.296 208.433 103.464 208.264V208.264Z" fill="white"/>
<path fill-rule="evenodd" clip-rule="evenodd" d="M107.964 208.264C108.133 208.095 108.362 208.001 108.6 208.001C108.839 208.001 109.067 208.095 109.236 208.264L112.836 211.864C113.005 212.033 113.099 212.262 113.099 212.5C113.099 212.739 113.005 212.967 112.836 213.136L109.236 216.736C109.154 216.824 109.054 216.895 108.944 216.945C108.834 216.994 108.714 217.02 108.594 217.022C108.473 217.024 108.353 217.002 108.241 216.957C108.129 216.912 108.027 216.844 107.941 216.759C107.856 216.673 107.789 216.572 107.743 216.46C107.698 216.347 107.676 216.227 107.678 216.107C107.68 215.986 107.706 215.867 107.756 215.756C107.805 215.646 107.876 215.546 107.964 215.464L110.927 212.5L107.964 209.536C107.796 209.367 107.701 209.139 107.701 208.9C107.701 208.662 107.796 208.433 107.964 208.264V208.264Z" fill="white"/>
<path d="M106.8 223.621C106.903 224.866 108.142 226 109.95 226C111.886 226 113.1 224.756 113.1 223.267C113.1 221.608 111.9 220.633 110.234 220.633C109.64 220.633 108.994 220.828 108.634 221.181L109.149 219.181H112.687V217.9H108.104L107.071 221.889L108.53 222.389C108.827 222.072 109.33 221.84 109.924 221.84C110.776 221.84 111.538 222.328 111.538 223.304C111.538 224.182 110.828 224.744 109.95 224.744C108.982 224.744 108.323 224.109 108.259 223.267L106.799 223.621H106.8Z" fill="white"/>
<path fill-rule="evenodd" clip-rule="evenodd" d="M105.206 211.618C105.481 211.625 105.713 211.631 105.9 211.631C106.139 211.631 106.368 211.726 106.537 211.895C106.705 212.063 106.8 212.292 106.8 212.531C106.8 212.77 106.705 212.999 106.537 213.167C106.368 213.336 106.139 213.431 105.9 213.431C105.689 213.431 105.433 213.424 105.163 213.418L105.056 213.415C104.723 213.406 104.39 213.401 104.056 213.4C103.35 213.4 102.666 213.431 102.146 213.534C101.099 213.742 100.137 214.254 99.3812 215.008C98.6274 215.76 98.1138 216.719 97.9055 217.764C97.6972 218.808 97.8036 219.891 98.2112 220.875C98.6201 221.86 99.312 222.701 100.199 223.292C101.088 223.884 102.132 224.2 103.2 224.2C103.439 224.2 103.668 224.295 103.837 224.464C104.005 224.632 104.1 224.861 104.1 225.1C104.1 225.339 104.005 225.568 103.837 225.736C103.668 225.905 103.439 226 103.2 226C101.777 226 100.385 225.579 99.2002 224.79C98.0167 224.001 97.0938 222.879 96.5482 221.566C96.0023 220.253 95.8593 218.807 96.1375 217.412C96.4156 216.017 97.1023 214.736 98.1102 213.733C99.1181 212.729 100.401 212.046 101.796 211.77C102.498 211.63 103.329 211.6 104.056 211.601C104.426 211.601 104.784 211.609 105.1 211.617L105.206 211.619V211.618Z" fill="white"/>
<rect x="129" y="201" width="32" height="32" rx="4" fill="white" fill-opacity="0.17"/>
<path fill-rule="evenodd" clip-rule="evenodd" d="M150.658 210.293C150.846 210.106 151.1 210 151.365 210C151.63 210 151.884 210.106 152.072 210.293C153.947 212.168 155 214.712 155 217.364C155 220.015 153.947 222.559 152.072 224.434C151.979 224.527 151.869 224.601 151.748 224.651C151.626 224.701 151.496 224.727 151.365 224.727C151.234 224.727 151.103 224.701 150.982 224.651C150.861 224.601 150.75 224.527 150.657 224.435C150.565 224.342 150.491 224.231 150.441 224.11C150.39 223.989 150.364 223.859 150.364 223.727C150.364 223.596 150.39 223.466 150.44 223.345C150.491 223.223 150.564 223.113 150.657 223.02C152.157 221.52 153 219.485 153 217.364C153 215.242 152.157 213.207 150.657 211.707C150.47 211.52 150.364 211.265 150.364 211C150.364 210.735 150.47 210.481 150.657 210.293H150.658ZM144.534 210.162C144.704 210.244 144.847 210.371 144.947 210.53C145.047 210.69 145.101 210.874 145.101 211.062V223.664C145.101 223.852 145.048 224.037 144.948 224.197C144.847 224.356 144.704 224.484 144.534 224.566C144.364 224.647 144.175 224.679 143.988 224.658C143.8 224.637 143.623 224.563 143.476 224.445L139.25 221.064H136C135.735 221.064 135.48 220.959 135.293 220.771C135.105 220.584 135 220.329 135 220.064V214.664C135 214.399 135.105 214.144 135.293 213.957C135.48 213.769 135.735 213.664 136 213.664H139.25L143.476 210.282C143.623 210.164 143.801 210.091 143.988 210.07C144.175 210.048 144.364 210.08 144.534 210.162V210.162ZM143.101 213.144L140.225 215.444C140.048 215.586 139.827 215.664 139.6 215.664H137V219.064H139.6C139.827 219.064 140.048 219.141 140.225 219.283L143.101 221.583V213.143V213.144ZM147.481 213.47C147.669 213.283 147.923 213.177 148.188 213.177C148.453 213.177 148.707 213.283 148.895 213.47C149.926 214.501 150.506 215.9 150.506 217.359C150.506 218.818 149.926 220.217 148.895 221.248C148.707 221.436 148.453 221.541 148.188 221.541C147.923 221.541 147.668 221.436 147.481 221.249C147.293 221.061 147.187 220.807 147.187 220.541C147.187 220.276 147.292 220.022 147.48 219.834C147.805 219.509 148.063 219.123 148.239 218.699C148.415 218.274 148.505 217.819 148.505 217.359C148.505 216.899 148.415 216.444 148.239 216.02C148.063 215.595 147.805 215.209 147.48 214.884C147.293 214.697 147.187 214.442 147.187 214.177C147.187 213.912 147.293 213.658 147.48 213.47H147.481Z" fill="white"/>
</g>
<defs>
<clipPath id="clip0_13_624">
<rect width="322" height="242" fill="white"/>
</clipPath>
</defs>
</svg>
