<svg fill="none" height="381" viewBox="0 0 978 381" width="978" xmlns="http://www.w3.org/2000/svg"><path d="m235.456 59h3.444c2.926 0 5.026-1.722 5.026-5.488 0-3.794-2.254-5.222-5.18-5.222h-3.29zm1.302-1.12v-8.47h2.072c2.156 0 3.738 1.148 3.738 4.144 0 3.15-1.554 4.326-3.822 4.326zm13.851-3.22h-3.78c.154-1.344.798-2.268 1.974-2.268 1.288 0 1.778.952 1.806 2.184zm1.19 2.408h-1.218c-.126.434-.448 1.148-1.68 1.148-1.386 0-2.002-1.036-2.086-2.562h5.082v-.644c0-1.862-.868-3.57-3.08-3.57-2.114 0-3.29 1.722-3.29 3.906 0 2.198 1.078 3.836 3.332 3.836 1.582 0 2.674-.84 2.94-2.114zm3.611 1.932h1.33l2.562-7.378h-1.204l-1.638 4.746c-.21.602-.364 1.162-.364 1.162h-.028s-.154-.56-.364-1.162l-1.596-4.746h-1.288zm9.896-4.34h-3.78c.154-1.344.798-2.268 1.974-2.268 1.288 0 1.778.952 1.806 2.184zm1.19 2.408h-1.218c-.126.434-.448 1.148-1.68 1.148-1.386 0-2.002-1.036-2.086-2.562h5.082v-.644c0-1.862-.868-3.57-3.08-3.57-2.114 0-3.29 1.722-3.29 3.906 0 2.198 1.078 3.836 3.332 3.836 1.582 0 2.674-.84 2.94-2.114zm2.084 1.932h1.26v-11.032h-1.26zm6.514.182c2.072 0 3.318-1.568 3.318-3.878 0-2.282-1.092-3.864-3.29-3.864-2.058 0-3.318 1.582-3.318 3.864 0 2.31 1.12 3.878 3.29 3.878zm.014-6.776c1.414 0 2.002 1.106 2.002 2.898 0 1.806-.602 2.898-1.974 2.898-1.428 0-2.03-1.092-2.03-2.898 0-1.792.658-2.898 2.002-2.898zm6.516 3.178v-.784c0-1.246.798-2.352 2.1-2.352 1.512 0 1.974 1.19 1.974 2.758 0 1.932-.644 2.982-1.96 2.982-1.4 0-2.114-1.148-2.114-2.604zm-1.218 6.048h1.26v-3.71h.028c.28.658 1.148 1.26 2.226 1.26 1.666 0 3.052-1.288 3.052-3.976 0-2.8-1.4-3.766-2.968-3.766-1.12 0-1.918.63-2.352 1.414h-.028v-1.232h-1.218zm17.945-7.784c-.126-1.736-1.456-2.408-2.926-2.408-2.072 0-3.304 1.652-3.304 3.906 0 2.338 1.148 3.822 3.276 3.822 1.596 0 2.814-.868 2.996-2.576h-1.176c-.042.56-.406 1.596-1.806 1.596-1.484 0-2.002-1.19-2.002-2.898 0-1.722.7-2.884 2.03-2.884 1.064 0 1.596.686 1.68 1.442zm4.634 5.334c2.072 0 3.318-1.568 3.318-3.878 0-2.282-1.092-3.864-3.29-3.864-2.058 0-3.318 1.582-3.318 3.864 0 2.31 1.12 3.878 3.29 3.878zm.014-6.776c1.414 0 2.002 1.106 2.002 2.898 0 1.806-.602 2.898-1.974 2.898-1.428 0-2.03-1.092-2.03-2.898 0-1.792.658-2.898 2.002-2.898zm5.297 6.594h1.26v-4.452c0-1.176.616-2.058 1.988-2.058.49 0 .896.14 1.148.49.266.364.266.924.266 1.456v4.564h1.26v-4.424c0-1.204.616-2.086 1.988-2.086.49 0 .896.126 1.148.476.266.364.266.938.266 1.47v4.564h1.26v-5.138c0-1.75-.952-2.422-2.338-2.422-1.218 0-2.128.756-2.408 1.526h-.028c-.266-1.022-1.106-1.526-2.226-1.526-1.176 0-2.03.672-2.366 1.428h-.028v-1.246h-1.19zm14.371-3.416v-.784c0-1.246.798-2.352 2.1-2.352 1.512 0 1.974 1.19 1.974 2.758 0 1.932-.644 2.982-1.96 2.982-1.4 0-2.114-1.148-2.114-2.604zm-1.218 6.048h1.26v-3.71h.028c.28.658 1.148 1.26 2.226 1.26 1.666 0 3.052-1.288 3.052-3.976 0-2.8-1.4-3.766-2.968-3.766-1.12 0-1.918.63-2.352 1.414h-.028v-1.232h-1.218zm11.327-2.45c2.072 0 3.318-1.568 3.318-3.878 0-2.282-1.092-3.864-3.29-3.864-2.058 0-3.318 1.582-3.318 3.864 0 2.31 1.12 3.878 3.29 3.878zm.014-6.776c1.414 0 2.002 1.106 2.002 2.898 0 1.806-.602 2.898-1.974 2.898-1.428 0-2.03-1.092-2.03-2.898 0-1.792.658-2.898 2.002-2.898zm9.987 6.594h1.26v-5.138c0-1.75-.938-2.422-2.352-2.422-1.176 0-2.03.672-2.38 1.428h-.028v-1.246h-1.19v7.378h1.26v-4.424c0-1.204.63-2.086 2.002-2.086.49 0 .91.14 1.162.49.266.35.266.938.266 1.47zm8.252-4.34h-3.78c.154-1.344.798-2.268 1.974-2.268 1.288 0 1.778.952 1.806 2.184zm1.19 2.408h-1.218c-.126.434-.448 1.148-1.68 1.148-1.386 0-2.002-1.036-2.086-2.562h5.082v-.644c0-1.862-.868-3.57-3.08-3.57-2.114 0-3.29 1.722-3.29 3.906 0 2.198 1.078 3.836 3.332 3.836 1.582 0 2.674-.84 2.94-2.114zm6.705 1.932h1.26v-5.138c0-1.75-.938-2.422-2.352-2.422-1.176 0-2.03.672-2.38 1.428h-.028v-1.246h-1.19v7.378h1.26v-4.424c0-1.204.63-2.086 2.002-2.086.49 0 .91.14 1.162.49.266.35.266.938.266 1.47zm4.234-9.52v.532c0 1.414-.224 1.652-1.218 1.652h-.224v.924h1.344v4.564c0 1.26.574 1.96 2.016 1.96.644 0 1.162-.084 1.162-.084v-1.064s-.434.07-.812.07c-.798 0-1.12-.308-1.12-1.092v-4.354h1.82v-.966h-1.82v-2.142zm9.592 3.99c-.126-1.288-1.036-2.03-2.632-2.03-1.68 0-2.674.938-2.674 2.24 0 1.288.7 1.834 2.016 2.044l1.134.168c1.008.168 1.162.49 1.162 1.078 0 .77-.63 1.246-1.638 1.246-1.302 0-1.624-.728-1.68-1.302h-1.232c.098 1.582 1.358 2.268 2.884 2.268 1.68 0 2.884-.798 2.884-2.282 0-1.274-.56-1.904-2.1-2.142l-1.134-.168c-.742-.126-1.106-.406-1.106-1.008 0-.686.574-1.19 1.442-1.19s1.4.42 1.47 1.078z" fill="#fff" opacity=".8"/><path d="m471.74 49.186c1.722 0 2.562 1.204 2.744 2.296h1.372c-.238-2.394-2.296-3.36-4.116-3.36-2.786 0-4.788 2.058-4.788 5.544 0 3.738 1.974 5.544 4.76 5.544 2.422 0 3.976-1.54 4.144-3.556h-1.33c-.14 1.218-.924 2.492-2.814 2.492-2.142 0-3.374-1.708-3.374-4.48 0-2.674 1.204-4.48 3.402-4.48zm7.485 2.436h-1.246v5.138c0 1.736.952 2.422 2.366 2.422 1.176 0 1.988-.686 2.324-1.442h.028v1.26h1.204v-7.378h-1.26v3.99c0 1.624-.644 2.534-2.016 2.534-.49 0-.882-.154-1.134-.49-.266-.35-.266-.966-.266-1.498zm12.144 1.848c-.126-1.288-1.036-2.03-2.632-2.03-1.68 0-2.674.938-2.674 2.24 0 1.288.7 1.834 2.016 2.044l1.134.168c1.008.168 1.162.49 1.162 1.078 0 .77-.63 1.246-1.638 1.246-1.302 0-1.624-.728-1.68-1.302h-1.232c.098 1.582 1.358 2.268 2.884 2.268 1.68 0 2.884-.798 2.884-2.282 0-1.274-.56-1.904-2.1-2.142l-1.134-.168c-.742-.126-1.106-.406-1.106-1.008 0-.686.574-1.19 1.442-1.19s1.4.42 1.47 1.078zm2.603-3.99v.532c0 1.414-.224 1.652-1.218 1.652h-.224v.924h1.344v4.564c0 1.26.574 1.96 2.016 1.96.644 0 1.162-.084 1.162-.084v-1.064s-.434.07-.812.07c-.798 0-1.12-.308-1.12-1.092v-4.354h1.82v-.966h-1.82v-2.142zm7.449 9.702c2.072 0 3.318-1.568 3.318-3.878 0-2.282-1.092-3.864-3.29-3.864-2.058 0-3.318 1.582-3.318 3.864 0 2.31 1.12 3.878 3.29 3.878zm.014-6.776c1.414 0 2.002 1.106 2.002 2.898 0 1.806-.602 2.898-1.974 2.898-1.428 0-2.03-1.092-2.03-2.898 0-1.792.658-2.898 2.002-2.898zm5.297 6.594h1.26v-4.452c0-1.176.616-2.058 1.988-2.058.49 0 .896.14 1.148.49.266.364.266.924.266 1.456v4.564h1.26v-4.424c0-1.204.616-2.086 1.988-2.086.49 0 .896.126 1.148.476.266.364.266.938.266 1.47v4.564h1.26v-5.138c0-1.75-.952-2.422-2.338-2.422-1.218 0-2.128.756-2.408 1.526h-.028c-.266-1.022-1.106-1.526-2.226-1.526-1.176 0-2.03.672-2.366 1.428h-.028v-1.246h-1.19zm22.539-5.152c-.126-1.736-1.456-2.408-2.926-2.408-2.072 0-3.304 1.652-3.304 3.906 0 2.338 1.148 3.822 3.276 3.822 1.596 0 2.814-.868 2.996-2.576h-1.176c-.042.56-.406 1.596-1.806 1.596-1.484 0-2.002-1.19-2.002-2.898 0-1.722.7-2.884 2.03-2.884 1.064 0 1.596.686 1.68 1.442zm4.634 5.334c2.072 0 3.318-1.568 3.318-3.878 0-2.282-1.092-3.864-3.29-3.864-2.058 0-3.318 1.582-3.318 3.864 0 2.31 1.12 3.878 3.29 3.878zm.014-6.776c1.414 0 2.002 1.106 2.002 2.898 0 1.806-.602 2.898-1.974 2.898-1.428 0-2.03-1.092-2.03-2.898 0-1.792.658-2.898 2.002-2.898zm10.124 3.402c0 1.344-.798 2.38-2.1 2.38-1.47 0-1.96-1.218-1.96-2.884 0-1.736.644-2.856 2.058-2.856 1.176 0 2.002 1.008 2.002 2.576zm1.232-7.84h-1.26v4.774h-.028c-.294-.686-1.008-1.302-2.114-1.302-1.862 0-3.178 1.386-3.178 3.92 0 2.842 1.442 3.822 3.01 3.822 1.134 0 1.932-.672 2.324-1.4h.042v1.218h1.204zm7.061 6.692h-3.78c.154-1.344.798-2.268 1.974-2.268 1.288 0 1.778.952 1.806 2.184zm1.19 2.408h-1.218c-.126.434-.448 1.148-1.68 1.148-1.386 0-2.002-1.036-2.086-2.562h5.082v-.644c0-1.862-.868-3.57-3.08-3.57-2.114 0-3.29 1.722-3.29 3.906 0 2.198 1.078 3.836 3.332 3.836 1.582 0 2.674-.84 2.94-2.114zm11.469-3.22c-.126-1.736-1.456-2.408-2.926-2.408-2.072 0-3.304 1.652-3.304 3.906 0 2.338 1.148 3.822 3.276 3.822 1.596 0 2.814-.868 2.996-2.576h-1.176c-.042.56-.406 1.596-1.806 1.596-1.484 0-2.002-1.19-2.002-2.898 0-1.722.7-2.884 2.03-2.884 1.064 0 1.596.686 1.68 1.442zm4.635 5.334c2.072 0 3.318-1.568 3.318-3.878 0-2.282-1.092-3.864-3.29-3.864-2.058 0-3.318 1.582-3.318 3.864 0 2.31 1.12 3.878 3.29 3.878zm.014-6.776c1.414 0 2.002 1.106 2.002 2.898 0 1.806-.602 2.898-1.974 2.898-1.428 0-2.03-1.092-2.03-2.898 0-1.792.658-2.898 2.002-2.898zm5.297 6.594h1.26v-4.452c0-1.176.616-2.058 1.988-2.058.49 0 .896.14 1.148.49.266.364.266.924.266 1.456v4.564h1.26v-4.424c0-1.204.616-2.086 1.988-2.086.49 0 .896.126 1.148.476.266.364.266.938.266 1.47v4.564h1.26v-5.138c0-1.75-.952-2.422-2.338-2.422-1.218 0-2.128.756-2.408 1.526h-.028c-.266-1.022-1.106-1.526-2.226-1.526-1.176 0-2.03.672-2.366 1.428h-.028v-1.246h-1.19zm14.37-3.416v-.784c0-1.246.798-2.352 2.1-2.352 1.512 0 1.974 1.19 1.974 2.758 0 1.932-.644 2.982-1.96 2.982-1.4 0-2.114-1.148-2.114-2.604zm-1.218 6.048h1.26v-3.71h.028c.28.658 1.148 1.26 2.226 1.26 1.666 0 3.052-1.288 3.052-3.976 0-2.8-1.4-3.766-2.968-3.766-1.12 0-1.918.63-2.352 1.414h-.028v-1.232h-1.218zm11.328-2.45c2.072 0 3.318-1.568 3.318-3.878 0-2.282-1.092-3.864-3.29-3.864-2.058 0-3.318 1.582-3.318 3.864 0 2.31 1.12 3.878 3.29 3.878zm.014-6.776c1.414 0 2.002 1.106 2.002 2.898 0 1.806-.602 2.898-1.974 2.898-1.428 0-2.03-1.092-2.03-2.898 0-1.792.658-2.898 2.002-2.898zm10.209 1.064c-.126-1.288-1.036-2.03-2.632-2.03-1.68 0-2.674.938-2.674 2.24 0 1.288.7 1.834 2.016 2.044l1.134.168c1.008.168 1.162.49 1.162 1.078 0 .77-.63 1.246-1.638 1.246-1.302 0-1.624-.728-1.68-1.302h-1.232c.098 1.582 1.358 2.268 2.884 2.268 1.68 0 2.884-.798 2.884-2.282 0-1.274-.56-1.904-2.1-2.142l-1.134-.168c-.742-.126-1.106-.406-1.106-1.008 0-.686.574-1.19 1.442-1.19s1.4.42 1.47 1.078zm2.238-3.528h1.33v-1.358h-1.33zm.028 9.058h1.274v-7.378h-1.274zm4.316-9.52v.532c0 1.414-.224 1.652-1.218 1.652h-.224v.924h1.344v4.564c0 1.26.574 1.96 2.016 1.96.644 0 1.162-.084 1.162-.084v-1.064s-.434.07-.812.07c-.798 0-1.12-.308-1.12-1.092v-4.354h1.82v-.966h-1.82v-2.142zm4.789.462h1.33v-1.358h-1.33zm.028 9.058h1.274v-7.378h-1.274zm6.542.182c2.072 0 3.318-1.568 3.318-3.878 0-2.282-1.092-3.864-3.29-3.864-2.058 0-3.318 1.582-3.318 3.864 0 2.31 1.12 3.878 3.29 3.878zm.014-6.776c1.414 0 2.002 1.106 2.002 2.898 0 1.806-.602 2.898-1.974 2.898-1.428 0-2.03-1.092-2.03-2.898 0-1.792.658-2.898 2.002-2.898zm9.987 6.594h1.26v-5.138c0-1.75-.938-2.422-2.352-2.422-1.176 0-2.03.672-2.38 1.428h-.028v-1.246h-1.19v7.378h1.26v-4.424c0-1.204.63-2.086 2.002-2.086.49 0 .91.14 1.162.49.266.35.266.938.266 1.47z" fill="#fff" opacity=".8"/><path d="m926 77h2v16h-2z" fill="#8b8b8b"/><path d="m703.096 49.592h.028s.196.686.42 1.33l1.344 3.836h-3.556l1.33-3.836c.21-.602.406-1.26.434-1.33zm3.276 9.408h1.386l-3.85-10.71h-1.54l-3.808 10.71h1.302l1.106-3.192h4.284zm7.874-3.192c0 1.344-.798 2.38-2.1 2.38-1.47 0-1.96-1.218-1.96-2.884 0-1.736.644-2.856 2.058-2.856 1.176 0 2.002 1.008 2.002 2.576zm1.232-7.84h-1.26v4.774h-.028c-.294-.686-1.008-1.302-2.114-1.302-1.862 0-3.178 1.386-3.178 3.92 0 2.842 1.442 3.822 3.01 3.822 1.134 0 1.932-.672 2.324-1.4h.042v1.218h1.204zm7.327 7.84c0 1.344-.798 2.38-2.1 2.38-1.47 0-1.96-1.218-1.96-2.884 0-1.736.644-2.856 2.058-2.856 1.176 0 2.002 1.008 2.002 2.576zm1.232-7.84h-1.26v4.774h-.028c-.294-.686-1.008-1.302-2.114-1.302-1.862 0-3.178 1.386-3.178 3.92 0 2.842 1.442 3.822 3.01 3.822 1.134 0 1.932-.672 2.324-1.4h.042v1.218h1.204zm6.451 11.032h1.26v-11.032h-1.26zm6.515.182c2.072 0 3.318-1.568 3.318-3.878 0-2.282-1.092-3.864-3.29-3.864-2.058 0-3.318 1.582-3.318 3.864 0 2.31 1.12 3.878 3.29 3.878zm.014-6.776c1.414 0 2.002 1.106 2.002 2.898 0 1.806-.602 2.898-1.974 2.898-1.428 0-2.03-1.092-2.03-2.898 0-1.792.658-2.898 2.002-2.898zm10.124 3.248c0 1.26-.854 2.296-2.044 2.296-1.554 0-2.016-1.12-2.016-2.744 0-1.666.63-2.772 1.96-2.772 1.274 0 2.1 1.008 2.1 2.478zm-2.156 6.132c2.002 0 3.36-.896 3.36-2.968v-7.196h-1.204v1.162h-.028c-.308-.686-1.022-1.344-2.212-1.344-1.82 0-3.108 1.33-3.108 3.766 0 2.73 1.414 3.696 2.954 3.696 1.106 0 1.974-.63 2.352-1.358h.014v1.092c0 1.624-.7 2.142-2.1 2.142-1.204 0-1.68-.406-1.82-1.036h-1.218c.168 1.526 1.61 2.044 3.01 2.044zm5.969-11.844h1.33v-1.358h-1.33zm.028 9.058h1.274v-7.378h-1.274zm9.482-5.152c-.126-1.736-1.456-2.408-2.926-2.408-2.072 0-3.304 1.652-3.304 3.906 0 2.338 1.148 3.822 3.276 3.822 1.596 0 2.814-.868 2.996-2.576h-1.176c-.042.56-.406 1.596-1.806 1.596-1.484 0-2.002-1.19-2.002-2.898 0-1.722.7-2.884 2.03-2.884 1.064 0 1.596.686 1.68 1.442z" fill="#fff" opacity=".8"/><path d="m928.758 53.386v-4.032h2.52c1.232 0 2.142.644 2.142 1.96 0 1.47-.938 2.072-2.198 2.072zm4.592 5.614h1.512l-2.366-4.718v-.028c.98-.252 2.296-.938 2.296-2.954 0-1.232-.532-2.058-1.386-2.534-.588-.308-1.288-.476-2.072-.476h-3.878v10.71h1.302v-4.536h2.38zm7.947-4.34h-3.78c.154-1.344.798-2.268 1.974-2.268 1.288 0 1.778.952 1.806 2.184zm1.19 2.408h-1.218c-.126.434-.448 1.148-1.68 1.148-1.386 0-2.002-1.036-2.086-2.562h5.082v-.644c0-1.862-.868-3.57-3.08-3.57-2.114 0-3.29 1.722-3.29 3.906 0 2.198 1.078 3.836 3.332 3.836 1.582 0 2.674-.84 2.94-2.114zm2.083 1.932h1.26v-11.032h-1.26zm8.307-4.34h-3.78c.154-1.344.798-2.268 1.974-2.268 1.288 0 1.778.952 1.806 2.184zm1.19 2.408h-1.218c-.126.434-.448 1.148-1.68 1.148-1.386 0-2.002-1.036-2.086-2.562h5.082v-.644c0-1.862-.868-3.57-3.08-3.57-2.114 0-3.29 1.722-3.29 3.906 0 2.198 1.078 3.836 3.332 3.836 1.582 0 2.674-.84 2.94-2.114zm3.987 1.036c-.798 0-1.288-.406-1.288-1.162 0-.392.126-.7.406-.91.476-.35 1.386-.476 2.982-.546v.168c0 1.82-1.162 2.45-2.1 2.45zm-.98-4.466c.042-.63.448-1.26 1.54-1.26 1.036 0 1.54.518 1.54 1.848v.322c-1.652.056-2.8.196-3.57.602-.756.378-1.106 1.05-1.106 1.862 0 1.316.868 2.114 2.338 2.114 1.092 0 1.974-.504 2.366-1.372h.028c.126.882.518 1.302 1.694 1.302h.154v-1.022c-.546-.014-.672-.252-.672-.84v-3.01c0-1.974-.896-2.744-2.73-2.744-1.764 0-2.758.896-2.786 2.198zm11.727-.168c-.126-1.288-1.036-2.03-2.632-2.03-1.68 0-2.674.938-2.674 2.24 0 1.288.7 1.834 2.016 2.044l1.134.168c1.008.168 1.162.49 1.162 1.078 0 .77-.63 1.246-1.638 1.246-1.302 0-1.624-.728-1.68-1.302h-1.232c.098 1.582 1.358 2.268 2.884 2.268 1.68 0 2.884-.798 2.884-2.282 0-1.274-.56-1.904-2.1-2.142l-1.134-.168c-.742-.126-1.106-.406-1.106-1.008 0-.686.574-1.19 1.442-1.19s1.4.42 1.47 1.078zm6.689 1.19h-3.78c.154-1.344.798-2.268 1.974-2.268 1.288 0 1.778.952 1.806 2.184zm1.19 2.408h-1.218c-.126.434-.448 1.148-1.68 1.148-1.386 0-2.002-1.036-2.086-2.562h5.082v-.644c0-1.862-.868-3.57-3.08-3.57-2.114 0-3.29 1.722-3.29 3.906 0 2.198 1.078 3.836 3.332 3.836 1.582 0 2.674-.84 2.94-2.114z" fill="#fff" opacity=".8"/><circle cx="238" cy="85" fill="#8b8b8b" r="6"/><g fill="#fff"><path d="m0 84h928v2h-928z" opacity=".2"/><path d="m3.456 59h3.444c2.926 0 5.026-1.722 5.026-5.488 0-3.794-2.254-5.222-5.18-5.222h-3.29zm1.302-1.12v-8.47h2.072c2.156 0 3.738 1.148 3.738 4.144 0 3.15-1.554 4.326-3.822 4.326zm13.8511-3.22h-3.78c.154-1.344.798-2.268 1.974-2.268 1.288 0 1.778.952 1.806 2.184zm1.19 2.408h-1.218c-.126.434-.448 1.148-1.68 1.148-1.386 0-2.002-1.036-2.086-2.562h5.082v-.644c0-1.862-.868-3.57-3.08-3.57-2.114 0-3.29 1.722-3.29 3.906 0 2.198 1.078 3.836 3.332 3.836 1.582 0 2.674-.84 2.94-2.114zm6.9273-3.598c-.126-1.288-1.036-2.03-2.632-2.03-1.68 0-2.674.938-2.674 2.24 0 1.288.7 1.834 2.016 2.044l1.134.168c1.008.168 1.162.49 1.162 1.078 0 .77-.63 1.246-1.638 1.246-1.302 0-1.624-.728-1.68-1.302h-1.232c.098 1.582 1.358 2.268 2.884 2.268 1.68 0 2.884-.798 2.884-2.282 0-1.274-.56-1.904-2.1-2.142l-1.134-.168c-.742-.126-1.106-.406-1.106-1.008 0-.686.574-1.19 1.442-1.19s1.4.42 1.47 1.078zm2.2374-3.528h1.33v-1.358h-1.33zm.028 9.058h1.274v-7.378h-1.274zm8.6001-3.346c0 1.26-.854 2.296-2.044 2.296-1.554 0-2.016-1.12-2.016-2.744 0-1.666.63-2.772 1.96-2.772 1.274 0 2.1 1.008 2.1 2.478zm-2.156 6.132c2.002 0 3.36-.896 3.36-2.968v-7.196h-1.204v1.162h-.028c-.308-.686-1.022-1.344-2.212-1.344-1.82 0-3.108 1.33-3.108 3.766 0 2.73 1.414 3.696 2.954 3.696 1.106 0 1.974-.63 2.352-1.358h.014v1.092c0 1.624-.7 2.142-2.1 2.142-1.204 0-1.68-.406-1.82-1.036h-1.218c.168 1.526 1.61 2.044 3.01 2.044zm10.6873-2.786h1.26v-5.138c0-1.75-.938-2.422-2.352-2.422-1.176 0-2.03.672-2.38 1.428h-.028v-1.246h-1.19v7.378h1.26v-4.424c0-1.204.63-2.086 2.002-2.086.49 0 .91.14 1.162.49.266.35.266.938.266 1.47zm9.546-.896c-.798 0-1.288-.406-1.288-1.162 0-.392.126-.7.406-.91.476-.35 1.386-.476 2.982-.546v.168c0 1.82-1.162 2.45-2.1 2.45zm-.98-4.466c.042-.63.448-1.26 1.54-1.26 1.036 0 1.54.518 1.54 1.848v.322c-1.652.056-2.8.196-3.57.602-.756.378-1.106 1.05-1.106 1.862 0 1.316.868 2.114 2.338 2.114 1.092 0 1.974-.504 2.366-1.372h.028c.126.882.518 1.302 1.694 1.302h.154v-1.022c-.546-.014-.672-.252-.672-.84v-3.01c0-1.974-.896-2.744-2.73-2.744-1.764 0-2.758.896-2.786 2.198zm11.5043 5.362h1.26v-5.138c0-1.75-.938-2.422-2.352-2.422-1.176 0-2.03.672-2.38 1.428h-.028v-1.246h-1.19v7.378h1.26v-4.424c0-1.204.63-2.086 2.002-2.086.49 0 .91.14 1.162.49.266.35.266.938.266 1.47zm8.5176-3.192c0 1.344-.798 2.38-2.1 2.38-1.47 0-1.96-1.218-1.96-2.884 0-1.736.644-2.856 2.058-2.856 1.176 0 2.002 1.008 2.002 2.576zm1.232-7.84h-1.26v4.774h-.028c-.294-.686-1.008-1.302-2.114-1.302-1.862 0-3.178 1.386-3.178 3.92 0 2.842 1.442 3.822 3.01 3.822 1.134 0 1.932-.672 2.324-1.4h.042v1.218h1.204zm7.669 7.616v-.784c0-1.246.798-2.352 2.1-2.352 1.512 0 1.974 1.19 1.974 2.758 0 1.932-.644 2.982-1.96 2.982-1.4 0-2.114-1.148-2.114-2.604zm-1.218 6.048h1.26v-3.71h.028c.28.658 1.148 1.26 2.226 1.26 1.666 0 3.052-1.288 3.052-3.976 0-2.8-1.4-3.766-2.968-3.766-1.12 0-1.918.63-2.352 1.414h-.028v-1.232h-1.218zm8.5586-2.632h1.26v-11.032h-1.26zm5.7185-.896c-.798 0-1.288-.406-1.288-1.162 0-.392.126-.7.406-.91.476-.35 1.386-.476 2.982-.546v.168c0 1.82-1.162 2.45-2.1 2.45zm-.98-4.466c.042-.63.448-1.26 1.54-1.26 1.036 0 1.54.518 1.54 1.848v.322c-1.652.056-2.8.196-3.57.602-.756.378-1.106 1.05-1.106 1.862 0 1.316.868 2.114 2.338 2.114 1.092 0 1.974-.504 2.366-1.372h.028c.126.882.518 1.302 1.6938 1.302h.154v-1.022c-.546-.014-.672-.252-.672-.84v-3.01c0-1.974-.8958-2.744-2.7298-2.744-1.764 0-2.758.896-2.786 2.198zm11.5038 5.362h1.26v-5.138c0-1.75-.938-2.422-2.352-2.422-1.176 0-2.03.672-2.38 1.428h-.028v-1.246h-1.19v7.378h1.26v-4.424c0-1.204.63-2.086 2.002-2.086.49 0 .91.14 1.162.49.266.35.266.938.266 1.47z" opacity=".8"/><path d="m6.656 10 1.464-5.436c.24-.912.288-1.44.288-1.44h.024s.036.528.288 1.452l1.476 5.424h1.932l2.424-9.180001h-1.8l-1.26 5.232001c-.216.912-.276 1.536-.276 1.536h-.012s-.108-.624-.36-1.548l-1.44-5.220001h-1.8l-1.428 5.232001c-.252.912-.312 1.536-.312 1.536h-.024s-.048-.624-.276-1.548l-1.272-5.220001h-2.04l2.436 9.180001zm9.7966 0h1.968v-9.180001h-1.968zm11.2843-9.180001h-7.392v1.548001h2.712v7.632h1.968v-7.632h2.712zm3.9479 5.364001h3.696v3.816h1.992v-9.180001h-1.992v3.828001h-3.696v-3.828001h-1.968v9.180001h1.968zm7.9319-.744c0 3.048 1.584 4.752 4.332 4.752 2.628 0 4.332-1.728 4.332-4.752 0-3.06-1.644-4.752-4.332-4.752-2.568 0-4.332 1.728-4.332 4.752zm4.332 3.312c-1.44 0-2.196-1.104-2.196-3.312 0-2.22.804-3.336 2.196-3.336 1.296 0 2.208 1.14 2.208 3.336 0 2.184-.816 3.312-2.208 3.312zm6.4832-1.956c0 2.328 1.464 3.396 3.72 3.396s3.756-1.08 3.756-3.396v-5.976001h-1.944v5.352001c0 .66.024 1.416-.312 1.86-.324.42-.816.6-1.476.6-.612 0-1.092-.18-1.428-.6-.348-.444-.36-1.2-.36-1.86l.012-5.352001h-1.968zm16.6889-5.976001h-7.392v1.548001h2.712v7.632h1.968v-7.632h2.712zm5.3718 9.180001h3.18c2.688 0 4.548-1.56 4.548-4.704s-1.884-4.476001-4.596-4.476001h-3.132zm1.968-1.488v-6.228h1.128c1.512 0 2.544.792 2.544 3.06 0 2.376-1.02 3.168-2.604 3.168zm7.9864 1.488h6.156v-1.488h-4.188v-2.364h3.864v-1.464h-3.864v-2.364h4.08v-1.500001h-6.048zm15.08-6.684c-.06-1.428-1.044-2.628-3.372-2.628-2.196 0-3.444 1.188-3.444 2.808 0 1.464.948 2.316 2.364 2.592l1.368.264c.96.18 1.308.516 1.308 1.152 0 .696-.504 1.248-1.596 1.248-1.02 0-1.572-.588-1.668-1.38h-2.052c.096 1.716 1.38 2.82 3.672 2.82 2.34 0 3.684-1.08 3.684-3.048 0-1.356-.792-2.232-2.424-2.532l-1.392-.252c-.876-.156-1.212-.528-1.212-1.14 0-.648.528-1.104 1.38-1.104.912 0 1.32.588 1.368 1.2zm2.4147 6.684h1.9683v-9.180001h-1.9683zm8.5603-7.896c.972 0 1.632.612 1.752 1.5h2.004c-.216-1.872-1.548-2.916-3.756-2.916-2.604 0-4.344 1.884-4.344 4.86 0 2.832 1.392 4.644 4.008 4.644 1.356 0 2.232-.612 2.664-1.44h.048v1.248h1.56v-4.896h-4.008v1.416h2.172l-.012.168c-.096 1.308-.828 2.076-2.088 2.076-1.392 0-2.244-.936-2.244-3.312 0-2.184.816-3.348 2.244-3.348zm6.415 7.896h1.776v-6.456h.036s.204.588.696 1.392l3.048 5.064h2.076v-9.180001h-1.8v6.336001h-.036s-.192-.576-.66-1.368l-2.964-4.968001h-2.172zm20.335-6.684c-.06-1.428-1.044-2.628-3.372-2.628-2.196 0-3.444 1.188-3.444 2.808 0 1.464.948 2.316 2.364 2.592l1.368.264c.96.18 1.308.516 1.308 1.152 0 .696-.504 1.248-1.596 1.248-1.02 0-1.572-.588-1.668-1.38h-2.052c.096 1.716 1.38 2.82 3.672 2.82 2.34 0 3.684-1.08 3.684-3.048 0-1.356-.792-2.232-2.424-2.532l-1.392-.252c-.876-.156-1.212-.528-1.212-1.14 0-.648.528-1.104 1.38-1.104.912 0 1.32.588 1.368 1.2zm4.156 6.684h1.968v-3.876l3.06-5.304001h-2.016l-1.956 3.612001h-.024l-1.932-3.612001h-2.172l3.072 5.340001zm12.905-6.684c-.06-1.428-1.044-2.628-3.372-2.628-2.196 0-3.444 1.188-3.444 2.808 0 1.464.948 2.316 2.364 2.592l1.368.264c.96.18 1.308.516 1.308 1.152 0 .696-.504 1.248-1.596 1.248-1.02 0-1.572-.588-1.668-1.38h-2.052c.096 1.716 1.38 2.82 3.672 2.82 2.34 0 3.684-1.08 3.684-3.048 0-1.356-.792-2.232-2.424-2.532l-1.392-.252c-.876-.156-1.212-.528-1.212-1.14 0-.648.528-1.104 1.38-1.104.912 0 1.32.588 1.368 1.2zm9.1-2.496001h-7.392v1.548001h2.712v7.632h1.968v-7.632h2.712zm1.98 9.180001h6.156v-1.488h-4.188v-2.364h3.864v-1.464h-3.864v-2.364h4.08v-1.500001h-6.048zm8.501 0h1.776v-7.176h.036s.18.828.54 1.932l1.728 5.244h1.464l1.716-5.244c.36-1.092.564-1.944.564-1.944h.036v7.188h1.944v-9.180001h-2.856l-1.644 4.932001c-.252.768-.384 1.356-.384 1.356h-.024s-.12-.588-.384-1.356l-1.656-4.932001h-2.856z"/><path d="m6.656 186 1.464-5.436c.24-.912.288-1.44.288-1.44h.024s.036.528.288 1.452l1.476 5.424h1.932l2.424-9.18h-1.8l-1.26 5.232c-.216.912-.276 1.536-.276 1.536h-.012s-.108-.624-.36-1.548l-1.44-5.22h-1.8l-1.428 5.232c-.252.912-.312 1.536-.312 1.536h-.024s-.048-.624-.276-1.548l-1.272-5.22h-2.04l2.436 9.18zm9.7966 0h1.968v-9.18h-1.968zm11.2843-9.18h-7.392v1.548h2.712v7.632h1.968v-7.632h2.712zm3.9479 5.364h3.696v3.816h1.992v-9.18h-1.992v3.828h-3.696v-3.828h-1.968v9.18h1.968zm11.7064 3.816h3.18c2.688 0 4.548-1.56 4.548-4.704s-1.884-4.476-4.596-4.476h-3.132zm1.968-1.488v-6.228h1.128c1.512 0 2.544.792 2.544 3.06 0 2.376-1.02 3.168-2.604 3.168zm7.9864 1.488h6.156v-1.488h-4.188v-2.364h3.864v-1.464h-3.864v-2.364h4.08v-1.5h-6.048zm15.08-6.684c-.06-1.428-1.044-2.628-3.372-2.628-2.196 0-3.444 1.188-3.444 2.808 0 1.464.948 2.316 2.364 2.592l1.368.264c.96.18 1.308.516 1.308 1.152 0 .696-.504 1.248-1.596 1.248-1.02 0-1.572-.588-1.668-1.38h-2.052c.096 1.716 1.38 2.82 3.672 2.82 2.34 0 3.684-1.08 3.684-3.048 0-1.356-.792-2.232-2.424-2.532l-1.392-.252c-.876-.156-1.212-.528-1.212-1.14 0-.648.528-1.104 1.38-1.104.912 0 1.32.588 1.368 1.2zm2.4147 6.684h1.968v-9.18h-1.968zm8.5603-7.896c.972 0 1.632.612 1.752 1.5h2.004c-.216-1.872-1.548-2.916-3.756-2.916-2.604 0-4.344 1.884-4.344 4.86 0 2.832 1.392 4.644 4.008 4.644 1.356 0 2.232-.612 2.664-1.44h.048v1.248h1.56v-4.896h-4.008v1.416h2.172l-.012.168c-.096 1.308-.828 2.076-2.088 2.076-1.392 0-2.244-.936-2.244-3.312 0-2.184.816-3.348 2.244-3.348zm6.4148 7.896h1.776v-6.456h.036s.204.588.696 1.392l3.048 5.064h2.076v-9.18h-1.8v6.336h-.036s-.192-.576-.66-1.368l-2.964-4.968h-2.172zm20.3356-6.684c-.06-1.428-1.044-2.628-3.372-2.628-2.196 0-3.4444 1.188-3.4444 2.808 0 1.464.9484 2.316 2.3644 2.592l1.368.264c.96.18 1.308.516 1.308 1.152 0 .696-.504 1.248-1.596 1.248-1.02 0-1.572-.588-1.668-1.38h-2.0524c.096 1.716 1.3804 2.82 3.6724 2.82 2.34 0 3.684-1.08 3.684-3.048 0-1.356-.792-2.232-2.424-2.532l-1.392-.252c-.876-.156-1.212-.528-1.212-1.14 0-.648.528-1.104 1.38-1.104.912 0 1.32.588 1.368 1.2zm4.155 6.684h1.968v-3.876l3.06-5.304h-2.016l-1.956 3.612h-.024l-1.932-3.612h-2.172l3.072 5.34zm12.906-6.684c-.06-1.428-1.044-2.628-3.372-2.628-2.196 0-3.444 1.188-3.444 2.808 0 1.464.948 2.316 2.364 2.592l1.368.264c.96.18 1.308.516 1.308 1.152 0 .696-.504 1.248-1.596 1.248-1.02 0-1.572-.588-1.668-1.38h-2.052c.096 1.716 1.38 2.82 3.672 2.82 2.34 0 3.684-1.08 3.684-3.048 0-1.356-.792-2.232-2.424-2.532l-1.392-.252c-.876-.156-1.212-.528-1.212-1.14 0-.648.528-1.104 1.38-1.104.912 0 1.32.588 1.368 1.2zm9.1-2.496h-7.392v1.548h2.712v7.632h1.968v-7.632h2.712zm1.98 9.18h6.156v-1.488h-4.188v-2.364h3.864v-1.464h-3.864v-2.364h4.08v-1.5h-6.048zm8.501 0h1.776v-7.176h.036s.18.828.54 1.932l1.728 5.244h1.464l1.716-5.244c.36-1.092.564-1.944.564-1.944h.036v7.188h1.944v-9.18h-2.856l-1.644 4.932c-.252.768-.384 1.356-.384 1.356h-.024s-.12-.588-.384-1.356l-1.656-4.932h-2.856z"/></g><circle cx="6" cy="85" fill="#8b8b8b" r="6"/><circle cx="470" cy="85" fill="#8b8b8b" r="6"/><circle cx="702" cy="85" fill="#8b8b8b" r="6"/><path d="m236.288 167.43c0 2.716 1.61 3.78 4.06 3.78 2.422 0 4.06-1.092 4.06-3.78v-7.14h-1.288v6.16c0 .98.028 2.128-.504 2.786-.49.63-1.26.91-2.24.91s-1.736-.28-2.24-.91c-.532-.658-.546-1.806-.546-2.786v-6.16h-1.302zm15.563-1.96c-.126-1.288-1.036-2.03-2.632-2.03-1.68 0-2.674.938-2.674 2.24 0 1.288.7 1.834 2.016 2.044l1.134.168c1.008.168 1.162.49 1.162 1.078 0 .77-.63 1.246-1.638 1.246-1.302 0-1.624-.728-1.68-1.302h-1.232c.098 1.582 1.358 2.268 2.884 2.268 1.68 0 2.884-.798 2.884-2.282 0-1.274-.56-1.904-2.1-2.142l-1.134-.168c-.742-.126-1.106-.406-1.106-1.008 0-.686.574-1.19 1.442-1.19s1.4.42 1.47 1.078zm6.69 1.19h-3.78c.154-1.344.798-2.268 1.974-2.268 1.288 0 1.778.952 1.806 2.184zm1.19 2.408h-1.218c-.126.434-.448 1.148-1.68 1.148-1.386 0-2.002-1.036-2.086-2.562h5.082v-.644c0-1.862-.868-3.57-3.08-3.57-2.114 0-3.29 1.722-3.29 3.906 0 2.198 1.078 3.836 3.332 3.836 1.582 0 2.674-.84 2.94-2.114zm10.742-3.598c-.126-1.288-1.036-2.03-2.632-2.03-1.681 0-2.674.938-2.674 2.24 0 1.288.7 1.834 2.016 2.044l1.134.168c1.008.168 1.162.49 1.162 1.078 0 .77-.63 1.246-1.638 1.246-1.302 0-1.624-.728-1.681-1.302h-1.231c.098 1.582 1.358 2.268 2.883 2.268 1.681 0 2.885-.798 2.885-2.282 0-1.274-.56-1.904-2.1-2.142l-1.134-.168c-.742-.126-1.106-.406-1.106-1.008 0-.686.574-1.19 1.442-1.19s1.4.42 1.47 1.078zm3.92 5.53-.14.392c-.322.994-.63 1.344-1.568 1.344-.126 0-.406-.014-.644-.07v1.036c.196.042.476.084.756.084 1.596 0 2.086-.63 2.674-2.324l2.688-7.84h-1.26l-1.512 4.606c-.238.714-.364 1.162-.364 1.162h-.042s-.126-.448-.364-1.148l-1.54-4.62h-1.26zm10.326-5.53c-.126-1.288-1.036-2.03-2.632-2.03-1.68 0-2.674.938-2.674 2.24 0 1.288.7 1.834 2.016 2.044l1.134.168c1.008.168 1.162.49 1.162 1.078 0 .77-.63 1.246-1.638 1.246-1.302 0-1.624-.728-1.68-1.302h-1.232c.098 1.582 1.358 2.268 2.884 2.268 1.68 0 2.884-.798 2.884-2.282 0-1.274-.56-1.904-2.1-2.142l-1.134-.168c-.742-.126-1.106-.406-1.106-1.008 0-.686.574-1.19 1.442-1.19s1.4.42 1.47 1.078zm2.603-3.99v.532c0 1.414-.224 1.652-1.218 1.652h-.224v.924h1.344v4.564c0 1.26.574 1.96 2.016 1.96.644 0 1.162-.084 1.162-.084v-1.064s-.434.07-.812.07c-.798 0-1.12-.308-1.12-1.092v-4.354h1.82v-.966h-1.82v-2.142zm9.24 5.18h-3.78c.154-1.344.798-2.268 1.974-2.268 1.288 0 1.778.952 1.806 2.184zm1.19 2.408h-1.218c-.126.434-.448 1.148-1.68 1.148-1.386 0-2.002-1.036-2.086-2.562h5.082v-.644c0-1.862-.868-3.57-3.08-3.57-2.114 0-3.29 1.722-3.29 3.906 0 2.198 1.078 3.836 3.332 3.836 1.582 0 2.674-.84 2.94-2.114zm2.015 1.932h1.26v-4.452c0-1.176.616-2.058 1.988-2.058.49 0 .896.14 1.148.49.266.364.266.924.266 1.456v4.564h1.26v-4.424c0-1.204.616-2.086 1.988-2.086.49 0 .896.126 1.148.476.266.364.266.938.266 1.47v4.564h1.26v-5.138c0-1.75-.952-2.422-2.338-2.422-1.218 0-2.128.756-2.408 1.526h-.028c-.266-1.022-1.106-1.526-2.226-1.526-1.176 0-2.03.672-2.366 1.428h-.028v-1.246h-1.19zm22.539-5.152c-.126-1.736-1.456-2.408-2.926-2.408-2.072 0-3.304 1.652-3.304 3.906 0 2.338 1.148 3.822 3.276 3.822 1.596 0 2.814-.868 2.996-2.576h-1.176c-.042.56-.406 1.596-1.806 1.596-1.484 0-2.002-1.19-2.002-2.898 0-1.722.7-2.884 2.03-2.884 1.064 0 1.596.686 1.68 1.442zm4.634 5.334c2.072 0 3.318-1.568 3.318-3.878 0-2.282-1.092-3.864-3.29-3.864-2.058 0-3.318 1.582-3.318 3.864 0 2.31 1.12 3.878 3.29 3.878zm.014-6.776c1.414 0 2.002 1.106 2.002 2.898 0 1.806-.602 2.898-1.974 2.898-1.428 0-2.03-1.092-2.03-2.898 0-1.792.658-2.898 2.002-2.898zm5.298 6.594h1.26v-4.452c0-1.176.616-2.058 1.988-2.058.49 0 .896.14 1.148.49.266.364.266.924.266 1.456v4.564h1.26v-4.424c0-1.204.616-2.086 1.988-2.086.49 0 .896.126 1.148.476.266.364.266.938.266 1.47v4.564h1.26v-5.138c0-1.75-.952-2.422-2.338-2.422-1.218 0-2.128.756-2.408 1.526h-.028c-.266-1.022-1.106-1.526-2.226-1.526-1.176 0-2.03.672-2.366 1.428h-.028v-1.246h-1.19zm14.37-3.416v-.784c0-1.246.798-2.352 2.1-2.352 1.512 0 1.974 1.19 1.974 2.758 0 1.932-.644 2.982-1.96 2.982-1.4 0-2.114-1.148-2.114-2.604zm-1.218 6.048h1.26v-3.71h.028c.28.658 1.148 1.26 2.226 1.26 1.666 0 3.052-1.288 3.052-3.976 0-2.8-1.4-3.766-2.968-3.766-1.12 0-1.918.63-2.352 1.414h-.028v-1.232h-1.218zm11.327-2.45c2.072 0 3.318-1.568 3.318-3.878 0-2.282-1.092-3.864-3.29-3.864-2.058 0-3.318 1.582-3.318 3.864 0 2.31 1.12 3.878 3.29 3.878zm.014-6.776c1.414 0 2.002 1.106 2.002 2.898 0 1.806-.602 2.898-1.974 2.898-1.428 0-2.03-1.092-2.03-2.898 0-1.792.658-2.898 2.002-2.898zm9.988 6.594h1.26v-5.138c0-1.75-.938-2.422-2.352-2.422-1.176 0-2.03.672-2.38 1.428h-.028v-1.246h-1.19v7.378h1.26v-4.424c0-1.204.63-2.086 2.002-2.086.49 0 .91.14 1.162.49.266.35.266.938.266 1.47zm8.251-4.34h-3.78c.154-1.344.798-2.268 1.974-2.268 1.288 0 1.778.952 1.806 2.184zm1.19 2.408h-1.218c-.126.434-.448 1.148-1.68 1.148-1.386 0-2.002-1.036-2.086-2.562h5.082v-.644c0-1.862-.868-3.57-3.08-3.57-2.114 0-3.29 1.722-3.29 3.906 0 2.198 1.078 3.836 3.332 3.836 1.582 0 2.674-.84 2.94-2.114zm6.705 1.932h1.26v-5.138c0-1.75-.938-2.422-2.352-2.422-1.176 0-2.03.672-2.38 1.428h-.028v-1.246h-1.19v7.378h1.26v-4.424c0-1.204.63-2.086 2.002-2.086.49 0 .91.14 1.162.49.266.35.266.938.266 1.47zm4.234-9.52v.532c0 1.414-.224 1.652-1.218 1.652h-.224v.924h1.344v4.564c0 1.26.574 1.96 2.016 1.96.644 0 1.162-.084 1.162-.084v-1.064s-.434.07-.812.07c-.798 0-1.12-.308-1.12-1.092v-4.354h1.82v-.966h-1.82v-2.142zm9.592 3.99c-.126-1.288-1.036-2.03-2.632-2.03-1.68 0-2.674.938-2.674 2.24 0 1.288.7 1.834 2.016 2.044l1.134.168c1.008.168 1.162.49 1.162 1.078 0 .77-.63 1.246-1.638 1.246-1.302 0-1.624-.728-1.68-1.302h-1.232c.098 1.582 1.358 2.268 2.884 2.268 1.68 0 2.884-.798 2.884-2.282 0-1.274-.56-1.904-2.1-2.142l-1.134-.168c-.742-.126-1.106-.406-1.106-1.008 0-.686.574-1.19 1.442-1.19s1.4.42 1.47 1.078z" fill="#fff" opacity=".8"/><path d="m183.456 332h3.444c2.926 0 5.026-1.722 5.026-5.488 0-3.794-2.254-5.222-5.18-5.222h-3.29zm1.302-1.12v-8.47h2.072c2.156 0 3.738 1.148 3.738 4.144 0 3.15-1.554 4.326-3.822 4.326zm13.851-3.22h-3.78c.154-1.344.798-2.268 1.974-2.268 1.288 0 1.778.952 1.806 2.184zm1.19 2.408h-1.218c-.126.434-.448 1.148-1.68 1.148-1.386 0-2.002-1.036-2.086-2.562h5.082v-.644c0-1.862-.868-3.57-3.08-3.57-2.114 0-3.29 1.722-3.29 3.906 0 2.198 1.078 3.836 3.332 3.836 1.582 0 2.674-.84 2.94-2.114zm6.927-3.598c-.126-1.288-1.036-2.03-2.632-2.03-1.68 0-2.674.938-2.674 2.24 0 1.288.7 1.834 2.016 2.044l1.134.168c1.008.168 1.162.49 1.162 1.078 0 .77-.63 1.246-1.638 1.246-1.302 0-1.624-.728-1.68-1.302h-1.232c.098 1.582 1.358 2.268 2.884 2.268 1.68 0 2.884-.798 2.884-2.282 0-1.274-.56-1.904-2.1-2.142l-1.134-.168c-.742-.126-1.106-.406-1.106-1.008 0-.686.574-1.19 1.442-1.19s1.4.42 1.47 1.078zm2.238-3.528h1.33v-1.358h-1.33zm.028 9.058h1.274v-7.378h-1.274zm8.6-3.346c0 1.26-.854 2.296-2.044 2.296-1.554 0-2.016-1.12-2.016-2.744 0-1.666.63-2.772 1.96-2.772 1.274 0 2.1 1.008 2.1 2.478zm-2.156 6.132c2.002 0 3.36-.896 3.36-2.968v-7.196h-1.204v1.162h-.028c-.308-.686-1.022-1.344-2.212-1.344-1.82 0-3.108 1.33-3.108 3.766 0 2.73 1.414 3.696 2.954 3.696 1.106 0 1.974-.63 2.352-1.358h.014v1.092c0 1.624-.7 2.142-2.1 2.142-1.204 0-1.68-.406-1.82-1.036h-1.218c.168 1.526 1.61 2.044 3.01 2.044zm10.687-2.786h1.26v-5.138c0-1.75-.938-2.422-2.352-2.422-1.176 0-2.03.672-2.38 1.428h-.028v-1.246h-1.19v7.378h1.26v-4.424c0-1.204.63-2.086 2.002-2.086.49 0 .91.14 1.162.49.266.35.266.938.266 1.47zm12.486-5.53c-.126-1.288-1.036-2.03-2.632-2.03-1.68 0-2.674.938-2.674 2.24 0 1.288.7 1.834 2.016 2.044l1.134.168c1.008.168 1.162.49 1.162 1.078 0 .77-.63 1.246-1.638 1.246-1.302 0-1.624-.728-1.68-1.302h-1.232c.098 1.582 1.358 2.268 2.884 2.268 1.68 0 2.884-.798 2.884-2.282 0-1.274-.56-1.904-2.1-2.142l-1.134-.168c-.742-.126-1.106-.406-1.106-1.008 0-.686.574-1.19 1.442-1.19s1.4.42 1.47 1.078zm3.921 5.53-.14.392c-.322.994-.63 1.344-1.568 1.344-.126 0-.406-.014-.644-.07v1.036c.196.042.476.084.756.084 1.596 0 2.086-.63 2.674-2.324l2.688-7.84h-1.26l-1.512 4.606c-.238.714-.364 1.162-.364 1.162h-.042s-.126-.448-.364-1.148l-1.54-4.62h-1.26zm10.325-5.53c-.126-1.288-1.036-2.03-2.632-2.03-1.68 0-2.674.938-2.674 2.24 0 1.288.7 1.834 2.016 2.044l1.134.168c1.008.168 1.162.49 1.162 1.078 0 .77-.63 1.246-1.638 1.246-1.302 0-1.624-.728-1.68-1.302h-1.232c.098 1.582 1.358 2.268 2.884 2.268 1.68 0 2.884-.798 2.884-2.282 0-1.274-.56-1.904-2.1-2.142l-1.134-.168c-.742-.126-1.106-.406-1.106-1.008 0-.686.574-1.19 1.442-1.19s1.4.42 1.47 1.078zm2.603-3.99v.532c0 1.414-.224 1.652-1.218 1.652h-.224v.924h1.344v4.564c0 1.26.574 1.96 2.016 1.96.644 0 1.162-.084 1.162-.084v-1.064s-.434.07-.812.07c-.798 0-1.12-.308-1.12-1.092v-4.354h1.82v-.966h-1.82v-2.142zm9.241 5.18h-3.78c.154-1.344.798-2.268 1.974-2.268 1.288 0 1.778.952 1.806 2.184zm1.19 2.408h-1.218c-.126.434-.448 1.148-1.68 1.148-1.386 0-2.002-1.036-2.086-2.562h5.082v-.644c0-1.862-.868-3.57-3.08-3.57-2.114 0-3.29 1.722-3.29 3.906 0 2.198 1.078 3.836 3.332 3.836 1.582 0 2.674-.84 2.94-2.114zm2.015 1.932h1.26v-4.452c0-1.176.616-2.058 1.988-2.058.49 0 .896.14 1.148.49.266.364.266.924.266 1.456v4.564h1.26v-4.424c0-1.204.616-2.086 1.988-2.086.49 0 .896.126 1.148.476.266.364.266.938.266 1.47v4.564h1.26v-5.138c0-1.75-.952-2.422-2.338-2.422-1.218 0-2.128.756-2.408 1.526h-.028c-.266-1.022-1.106-1.526-2.226-1.526-1.176 0-2.03.672-2.366 1.428h-.028v-1.246h-1.19zm18.871-.896c-.798 0-1.288-.406-1.288-1.162 0-.392.126-.7.406-.91.476-.35 1.386-.476 2.982-.546v.168c0 1.82-1.162 2.45-2.1 2.45zm-.98-4.466c.042-.63.448-1.26 1.54-1.26 1.036 0 1.54.518 1.54 1.848v.322c-1.652.056-2.8.196-3.57.602-.756.378-1.106 1.05-1.106 1.862 0 1.316.868 2.114 2.338 2.114 1.092 0 1.974-.504 2.366-1.372h.028c.126.882.518 1.302 1.694 1.302h.154v-1.022c-.546-.014-.672-.252-.672-.84v-3.01c0-1.974-.896-2.744-2.73-2.744-1.764 0-2.758.896-2.786 2.198zm11.504 5.362h1.26v-5.138c0-1.75-.938-2.422-2.352-2.422-1.176 0-2.03.672-2.38 1.428h-.028v-1.246h-1.19v7.378h1.26v-4.424c0-1.204.63-2.086 2.002-2.086.49 0 .91.14 1.162.49.266.35.266.938.266 1.47zm5.732-.896c-.798 0-1.288-.406-1.288-1.162 0-.392.126-.7.406-.91.476-.35 1.386-.476 2.982-.546v.168c0 1.82-1.162 2.45-2.1 2.45zm-.98-4.466c.042-.63.448-1.26 1.54-1.26 1.036 0 1.54.518 1.54 1.848v.322c-1.652.056-2.8.196-3.57.602-.756.378-1.106 1.05-1.106 1.862 0 1.316.868 2.114 2.338 2.114 1.092 0 1.974-.504 2.366-1.372h.028c.126.882.518 1.302 1.694 1.302h.154v-1.022c-.546-.014-.672-.252-.672-.84v-3.01c0-1.974-.896-2.744-2.73-2.744-1.764 0-2.758.896-2.786 2.198zm6.814 5.362h1.26v-11.032h-1.26zm5.606 0-.14.392c-.322.994-.63 1.344-1.568 1.344-.126 0-.406-.014-.644-.07v1.036c.196.042.476.084.756.084 1.596 0 2.086-.63 2.674-2.324l2.688-7.84h-1.26l-1.512 4.606c-.238.714-.364 1.162-.364 1.162h-.042s-.126-.448-.364-1.148l-1.54-4.62h-1.26zm5.021-6.356h4.102l-4.298 5.25v1.106h5.852v-1.036h-4.424l4.326-5.25v-1.092h-5.558zm12.049 2.016h-3.78c.154-1.344.798-2.268 1.974-2.268 1.288 0 1.778.952 1.806 2.184zm1.19 2.408h-1.218c-.126.434-.448 1.148-1.68 1.148-1.386 0-2.002-1.036-2.086-2.562h5.082v-.644c0-1.862-.868-3.57-3.08-3.57-2.114 0-3.29 1.722-3.29 3.906 0 2.198 1.078 3.836 3.332 3.836 1.582 0 2.674-.84 2.94-2.114zm6.927-3.598c-.126-1.288-1.036-2.03-2.632-2.03-1.68 0-2.674.938-2.674 2.24 0 1.288.7 1.834 2.016 2.044l1.134.168c1.008.168 1.162.49 1.162 1.078 0 .77-.63 1.246-1.638 1.246-1.302 0-1.624-.728-1.68-1.302h-1.232c.098 1.582 1.358 2.268 2.884 2.268 1.68 0 2.884-.798 2.884-2.282 0-1.274-.56-1.904-2.1-2.142l-1.134-.168c-.742-.126-1.106-.406-1.106-1.008 0-.686.574-1.19 1.442-1.19s1.4.42 1.47 1.078zm6.418-3.99v.532c0 1.414-.224 1.652-1.218 1.652h-.224v.924h1.344v4.564c0 1.26.574 1.96 2.016 1.96.644 0 1.162-.084 1.162-.084v-1.064s-.434.07-.812.07c-.798 0-1.12-.308-1.12-1.092v-4.354h1.82v-.966h-1.82v-2.142zm9.369 9.52h1.26v-5.138c0-1.75-.938-2.422-2.352-2.422-1.204 0-1.988.686-2.31 1.4h-.028v-4.872h-1.26v11.032h1.26v-4.424c0-1.204.63-2.086 2.002-2.086.49 0 .91.14 1.162.49.266.35.266.924.266 1.456zm8.252-4.34h-3.78c.154-1.344.798-2.268 1.974-2.268 1.288 0 1.778.952 1.806 2.184zm1.19 2.408h-1.218c-.126.434-.448 1.148-1.68 1.148-1.386 0-2.002-1.036-2.086-2.562h5.082v-.644c0-1.862-.868-3.57-3.08-3.57-2.114 0-3.29 1.722-3.29 3.906 0 2.198 1.078 3.836 3.332 3.836 1.582 0 2.674-.84 2.94-2.114zm10.588-1.26c0 1.344-.798 2.38-2.1 2.38-1.47 0-1.96-1.218-1.96-2.884 0-1.736.644-2.856 2.058-2.856 1.176 0 2.002 1.008 2.002 2.576zm1.232-7.84h-1.26v4.774h-.028c-.294-.686-1.008-1.302-2.114-1.302-1.862 0-3.178 1.386-3.178 3.92 0 2.842 1.442 3.822 3.01 3.822 1.134 0 1.932-.672 2.324-1.4h.042v1.218h1.204zm7.06 6.692h-3.78c.154-1.344.798-2.268 1.974-2.268 1.288 0 1.778.952 1.806 2.184zm1.19 2.408h-1.218c-.126.434-.448 1.148-1.68 1.148-1.386 0-2.002-1.036-2.086-2.562h5.082v-.644c0-1.862-.868-3.57-3.08-3.57-2.114 0-3.29 1.722-3.29 3.906 0 2.198 1.078 3.836 3.332 3.836 1.582 0 2.674-.84 2.94-2.114zm6.928-3.598c-.126-1.288-1.036-2.03-2.632-2.03-1.68 0-2.674.938-2.674 2.24 0 1.288.7 1.834 2.016 2.044l1.134.168c1.008.168 1.162.49 1.162 1.078 0 .77-.63 1.246-1.638 1.246-1.302 0-1.624-.728-1.68-1.302h-1.232c.098 1.582 1.358 2.268 2.884 2.268 1.68 0 2.884-.798 2.884-2.282 0-1.274-.56-1.904-2.1-2.142l-1.134-.168c-.742-.126-1.106-.406-1.106-1.008 0-.686.574-1.19 1.442-1.19s1.4.42 1.47 1.078zm2.237-3.528h1.33v-1.358h-1.33zm.028 9.058h1.274v-7.378h-1.274zm8.6-3.346c0 1.26-.854 2.296-2.044 2.296-1.554 0-2.016-1.12-2.016-2.744 0-1.666.63-2.772 1.96-2.772 1.274 0 2.1 1.008 2.1 2.478zm-2.156 6.132c2.002 0 3.36-.896 3.36-2.968v-7.196h-1.204v1.162h-.028c-.308-.686-1.022-1.344-2.212-1.344-1.82 0-3.108 1.33-3.108 3.766 0 2.73 1.414 3.696 2.954 3.696 1.106 0 1.974-.63 2.352-1.358h.014v1.092c0 1.624-.7 2.142-2.1 2.142-1.204 0-1.68-.406-1.82-1.036h-1.218c.168 1.526 1.61 2.044 3.01 2.044zm10.687-2.786h1.26v-5.138c0-1.75-.938-2.422-2.352-2.422-1.176 0-2.03.672-2.38 1.428h-.028v-1.246h-1.19v7.378h1.26v-4.424c0-1.204.63-2.086 2.002-2.086.49 0 .91.14 1.162.49.266.35.266.938.266 1.47zm-226.061 19.104c-.798 0-1.288-.406-1.288-1.162 0-.392.126-.7.406-.91.476-.35 1.386-.476 2.982-.546v.168c0 1.82-1.162 2.45-2.1 2.45zm-.98-4.466c.042-.63.448-1.26 1.54-1.26 1.036 0 1.54.518 1.54 1.848v.322c-1.652.056-2.8.196-3.57.602-.756.378-1.106 1.05-1.106 1.862 0 1.316.868 2.114 2.338 2.114 1.092 0 1.974-.504 2.366-1.372h.028c.126.882.518 1.302 1.694 1.302h.154v-1.022c-.546-.014-.672-.252-.672-.84v-3.01c0-1.974-.896-2.744-2.73-2.744-1.764 0-2.758.896-2.786 2.198zm11.504 5.362h1.26v-5.138c0-1.75-.938-2.422-2.352-2.422-1.176 0-2.03.672-2.38 1.428h-.028v-1.246h-1.19v7.378h1.26v-4.424c0-1.204.63-2.086 2.002-2.086.49 0 .91.14 1.162.49.266.35.266.938.266 1.47zm8.518-3.192c0 1.344-.798 2.38-2.1 2.38-1.47 0-1.96-1.218-1.96-2.884 0-1.736.644-2.856 2.058-2.856 1.176 0 2.002 1.008 2.002 2.576zm1.232-7.84h-1.26v4.774h-.028c-.294-.686-1.008-1.302-2.114-1.302-1.862 0-3.178 1.386-3.178 3.92 0 2.842 1.442 3.822 3.01 3.822 1.134 0 1.932-.672 2.324-1.4h.042v1.218h1.204zm6.451 11.032h1.19v-1.176h.028c.378.714 1.148 1.358 2.31 1.358 1.666 0 3.038-1.288 3.038-3.976 0-2.8-1.4-3.766-2.968-3.766-1.106 0-1.918.602-2.324 1.4h-.014v-4.872h-1.26zm3.332-.812c-1.4 0-2.114-1.148-2.114-2.604v-.784c0-1.246.77-2.352 2.1-2.352 1.512 0 1.974 1.19 1.974 2.758 0 1.932-.644 2.982-1.96 2.982zm6.445-6.566h-1.246v5.138c0 1.736.952 2.422 2.366 2.422 1.176 0 1.988-.686 2.324-1.442h.028v1.26h1.204v-7.378h-1.26v3.99c0 1.624-.644 2.534-2.016 2.534-.49 0-.882-.154-1.134-.49-.266-.35-.266-.966-.266-1.498zm7.271-1.68h1.33v-1.358h-1.33zm.028 9.058h1.274v-7.378h-1.274zm3.91 0h1.26v-11.032h-1.26zm8.573-3.192c0 1.344-.798 2.38-2.1 2.38-1.47 0-1.96-1.218-1.96-2.884 0-1.736.644-2.856 2.058-2.856 1.176 0 2.002 1.008 2.002 2.576zm1.232-7.84h-1.26v4.774h-.028c-.294-.686-1.008-1.302-2.114-1.302-1.862 0-3.178 1.386-3.178 3.92 0 2.842 1.442 3.822 3.01 3.822 1.134 0 1.932-.672 2.324-1.4h.042v1.218h1.204zm7.481 5.502c-.126-1.288-1.036-2.03-2.632-2.03-1.68 0-2.674.938-2.674 2.24 0 1.288.7 1.834 2.016 2.044l1.134.168c1.008.168 1.162.49 1.162 1.078 0 .77-.63 1.246-1.638 1.246-1.302 0-1.624-.728-1.68-1.302h-1.232c.098 1.582 1.358 2.268 2.884 2.268 1.68 0 2.884-.798 2.884-2.282 0-1.274-.56-1.904-2.1-2.142l-1.134-.168c-.742-.126-1.106-.406-1.106-1.008 0-.686.574-1.19 1.442-1.19s1.4.42 1.47 1.078zm6.417-3.99v.532c0 1.414-.224 1.652-1.218 1.652h-.224v.924h1.344v4.564c0 1.26.574 1.96 2.016 1.96.644 0 1.162-.084 1.162-.084v-1.064s-.434.07-.812.07c-.798 0-1.12-.308-1.12-1.092v-4.354h1.82v-.966h-1.82v-2.142zm9.37 9.52h1.26v-5.138c0-1.75-.938-2.422-2.352-2.422-1.204 0-1.988.686-2.31 1.4h-.028v-4.872h-1.26v11.032h1.26v-4.424c0-1.204.63-2.086 2.002-2.086.49 0 .91.14 1.162.49.266.35.266.924.266 1.456zm8.252-4.34h-3.78c.154-1.344.798-2.268 1.974-2.268 1.288 0 1.778.952 1.806 2.184zm1.19 2.408h-1.218c-.126.434-.448 1.148-1.68 1.148-1.386 0-2.002-1.036-2.086-2.562h5.082v-.644c0-1.862-.868-3.57-3.08-3.57-2.114 0-3.29 1.722-3.29 3.906 0 2.198 1.078 3.836 3.332 3.836 1.582 0 2.674-.84 2.94-2.114zm10.587 1.932h1.26v-5.138c0-1.75-.938-2.422-2.352-2.422-1.176 0-2.03.672-2.38 1.428h-.028v-1.246h-1.19v7.378h1.26v-4.424c0-1.204.63-2.086 2.002-2.086.49 0 .91.14 1.162.49.266.35.266.938.266 1.47zm8.252-4.34h-3.78c.154-1.344.798-2.268 1.974-2.268 1.288 0 1.778.952 1.806 2.184zm1.19 2.408h-1.218c-.126.434-.448 1.148-1.68 1.148-1.386 0-2.002-1.036-2.086-2.562h5.082v-.644c0-1.862-.868-3.57-3.08-3.57-2.114 0-3.29 1.722-3.29 3.906 0 2.198 1.078 3.836 3.332 3.836 1.582 0 2.674-.84 2.94-2.114zm7.724-3.22c-.126-1.736-1.456-2.408-2.926-2.408-2.072 0-3.304 1.652-3.304 3.906 0 2.338 1.148 3.822 3.276 3.822 1.596 0 2.814-.868 2.996-2.576h-1.176c-.042.56-.406 1.596-1.806 1.596-1.484 0-2.002-1.19-2.002-2.898 0-1.722.7-2.884 2.03-2.884 1.064 0 1.596.686 1.68 1.442zm6.426.812h-3.78c.154-1.344.798-2.268 1.974-2.268 1.288 0 1.778.952 1.806 2.184zm1.19 2.408h-1.218c-.126.434-.448 1.148-1.68 1.148-1.386 0-2.002-1.036-2.086-2.562h5.082v-.644c0-1.862-.868-3.57-3.08-3.57-2.114 0-3.29 1.722-3.29 3.906 0 2.198 1.078 3.836 3.332 3.836 1.582 0 2.674-.84 2.94-2.114zm6.927-3.598c-.126-1.288-1.036-2.03-2.632-2.03-1.68 0-2.674.938-2.674 2.24 0 1.288.7 1.834 2.016 2.044l1.134.168c1.008.168 1.162.49 1.162 1.078 0 .77-.63 1.246-1.638 1.246-1.302 0-1.624-.728-1.68-1.302h-1.232c.098 1.582 1.358 2.268 2.884 2.268 1.68 0 2.884-.798 2.884-2.282 0-1.274-.56-1.904-2.1-2.142l-1.134-.168c-.742-.126-1.106-.406-1.106-1.008 0-.686.574-1.19 1.442-1.19s1.4.42 1.47 1.078zm7.041 0c-.126-1.288-1.036-2.03-2.632-2.03-1.68 0-2.674.938-2.674 2.24 0 1.288.7 1.834 2.016 2.044l1.134.168c1.008.168 1.162.49 1.162 1.078 0 .77-.63 1.246-1.638 1.246-1.302 0-1.624-.728-1.68-1.302h-1.232c.098 1.582 1.358 2.268 2.884 2.268 1.68 0 2.884-.798 2.884-2.282 0-1.274-.56-1.904-2.1-2.142l-1.134-.168c-.742-.126-1.106-.406-1.106-1.008 0-.686.574-1.19 1.442-1.19s1.4.42 1.47 1.078zm4.101 4.634c-.798 0-1.288-.406-1.288-1.162 0-.392.126-.7.406-.91.476-.35 1.386-.476 2.982-.546v.168c0 1.82-1.162 2.45-2.1 2.45zm-.98-4.466c.042-.63.448-1.26 1.54-1.26 1.036 0 1.54.518 1.54 1.848v.322c-1.652.056-2.8.196-3.57.602-.756.378-1.106 1.05-1.106 1.862 0 1.316.868 2.114 2.338 2.114 1.092 0 1.974-.504 2.366-1.372h.028c.126.882.518 1.302 1.694 1.302h.154v-1.022c-.546-.014-.672-.252-.672-.84v-3.01c0-1.974-.896-2.744-2.73-2.744-1.764 0-2.758.896-2.786 2.198zm6.814 5.362h1.26v-4.018c0-1.428.868-2.184 2.184-2.184h.238v-1.316h-.126c-1.078 0-2.002.756-2.338 1.526h-.028v-1.386h-1.19zm6.988 0-.14.392c-.322.994-.63 1.344-1.568 1.344-.126 0-.406-.014-.644-.07v1.036c.196.042.476.084.756.084 1.596 0 2.086-.63 2.674-2.324l2.688-7.84h-1.26l-1.512 4.606c-.238.714-.364 1.162-.364 1.162h-.042s-.126-.448-.364-1.148l-1.54-4.62h-1.26zm14.868-5.152c-.126-1.736-1.456-2.408-2.926-2.408-2.072 0-3.304 1.652-3.304 3.906 0 2.338 1.148 3.822 3.276 3.822 1.596 0 2.814-.868 2.996-2.576h-1.176c-.042.56-.406 1.596-1.806 1.596-1.484 0-2.002-1.19-2.002-2.898 0-1.722.7-2.884 2.03-2.884 1.064 0 1.596.686 1.68 1.442zm4.634 5.334c2.072 0 3.318-1.568 3.318-3.878 0-2.282-1.092-3.864-3.29-3.864-2.058 0-3.318 1.582-3.318 3.864 0 2.31 1.12 3.878 3.29 3.878zm.014-6.776c1.414 0 2.002 1.106 2.002 2.898 0 1.806-.602 2.898-1.974 2.898-1.428 0-2.03-1.092-2.03-2.898 0-1.792.658-2.898 2.002-2.898zm5.297 6.594h1.26v-4.452c0-1.176.616-2.058 1.988-2.058.49 0 .896.14 1.148.49.266.364.266.924.266 1.456v4.564h1.26v-4.424c0-1.204.616-2.086 1.988-2.086.49 0 .896.126 1.148.476.266.364.266.938.266 1.47v4.564h1.26v-5.138c0-1.75-.952-2.422-2.338-2.422-1.218 0-2.128.756-2.408 1.526h-.028c-.266-1.022-1.106-1.526-2.226-1.526-1.176 0-2.03.672-2.366 1.428h-.028v-1.246h-1.19zm14.37-3.416v-.784c0-1.246.798-2.352 2.1-2.352 1.512 0 1.974 1.19 1.974 2.758 0 1.932-.644 2.982-1.96 2.982-1.4 0-2.114-1.148-2.114-2.604zm-1.218 6.048h1.26v-3.71h.028c.28.658 1.148 1.26 2.226 1.26 1.666 0 3.052-1.288 3.052-3.976 0-2.8-1.4-3.766-2.968-3.766-1.12 0-1.918.63-2.352 1.414h-.028v-1.232h-1.218zm11.328-2.45c2.072 0 3.318-1.568 3.318-3.878 0-2.282-1.092-3.864-3.29-3.864-2.058 0-3.318 1.582-3.318 3.864 0 2.31 1.12 3.878 3.29 3.878zm.014-6.776c1.414 0 2.002 1.106 2.002 2.898 0 1.806-.602 2.898-1.974 2.898-1.428 0-2.03-1.092-2.03-2.898 0-1.792.658-2.898 2.002-2.898zm9.987 6.594h1.26v-5.138c0-1.75-.938-2.422-2.352-2.422-1.176 0-2.03.672-2.38 1.428h-.028v-1.246h-1.19v7.378h1.26v-4.424c0-1.204.63-2.086 2.002-2.086.49 0 .91.14 1.162.49.266.35.266.938.266 1.47zm8.252-4.34h-3.78c.154-1.344.798-2.268 1.974-2.268 1.288 0 1.778.952 1.806 2.184zm1.19 2.408h-1.218c-.126.434-.448 1.148-1.68 1.148-1.386 0-2.002-1.036-2.086-2.562h5.082v-.644c0-1.862-.868-3.57-3.08-3.57-2.114 0-3.29 1.722-3.29 3.906 0 2.198 1.078 3.836 3.332 3.836 1.582 0 2.674-.84 2.94-2.114zm6.705 1.932h1.26v-5.138c0-1.75-.938-2.422-2.352-2.422-1.176 0-2.03.672-2.38 1.428h-.028v-1.246h-1.19v7.378h1.26v-4.424c0-1.204.63-2.086 2.002-2.086.49 0 .91.14 1.162.49.266.35.266.938.266 1.47zm4.233-9.52v.532c0 1.414-.224 1.652-1.218 1.652h-.224v.924h1.344v4.564c0 1.26.574 1.96 2.016 1.96.644 0 1.162-.084 1.162-.084v-1.064s-.434.07-.812.07c-.798 0-1.12-.308-1.12-1.092v-4.354h1.82v-.966h-1.82v-2.142zm9.593 3.99c-.126-1.288-1.036-2.03-2.632-2.03-1.681 0-2.674.938-2.674 2.24 0 1.288.7 1.834 2.016 2.044l1.134.168c1.008.168 1.162.49 1.162 1.078 0 .77-.63 1.246-1.638 1.246-1.302 0-1.624-.728-1.681-1.302h-1.231c.098 1.582 1.358 2.268 2.883 2.268 1.681 0 2.885-.798 2.885-2.282 0-1.274-.56-1.904-2.1-2.142l-1.134-.168c-.742-.126-1.106-.406-1.106-1.008 0-.686.574-1.19 1.442-1.19s1.4.42 1.47 1.078zm-247.657 25.53h1.19v-1.176h.028c.378.714 1.148 1.358 2.31 1.358 1.666 0 3.038-1.288 3.038-3.976 0-2.8-1.4-3.766-2.968-3.766-1.106 0-1.918.602-2.324 1.4h-.014v-4.872h-1.26zm3.332-.812c-1.4 0-2.114-1.148-2.114-2.604v-.784c0-1.246.77-2.352 2.1-2.352 1.512 0 1.974 1.19 1.974 2.758 0 1.932-.644 2.982-1.96 2.982zm9.787-3.528h-3.78c.154-1.344.798-2.268 1.974-2.268 1.288 0 1.778.952 1.806 2.184zm1.19 2.408h-1.218c-.126.434-.448 1.148-1.68 1.148-1.386 0-2.002-1.036-2.086-2.562h5.082v-.644c0-1.862-.868-3.57-3.08-3.57-2.114 0-3.29 1.722-3.29 3.906 0 2.198 1.078 3.836 3.332 3.836 1.582 0 2.674-.84 2.94-2.114zm3.638-4.48h1.764v-.966h-1.764v-1.498c0-.882.35-1.148 1.078-1.148.322 0 .546.028.686.056v-1.036c-.224-.042-.504-.07-.784-.07-1.372 0-2.24.532-2.24 2.044v1.652h-1.344v.966h1.344v6.412h1.26zm5.958 6.594c2.072 0 3.318-1.568 3.318-3.878 0-2.282-1.092-3.864-3.29-3.864-2.058 0-3.318 1.582-3.318 3.864 0 2.31 1.12 3.878 3.29 3.878zm.014-6.776c1.414 0 2.002 1.106 2.002 2.898 0 1.806-.602 2.898-1.974 2.898-1.428 0-2.03-1.092-2.03-2.898 0-1.792.658-2.898 2.002-2.898zm5.298 6.594h1.26v-4.018c0-1.428.868-2.184 2.184-2.184h.238v-1.316h-.126c-1.078 0-2.002.756-2.338 1.526h-.028v-1.386h-1.19zm9.756-4.34h-3.78c.154-1.344.798-2.268 1.974-2.268 1.288 0 1.778.952 1.806 2.184zm1.19 2.408h-1.218c-.126.434-.448 1.148-1.68 1.148-1.386 0-2.002-1.036-2.086-2.562h5.082v-.644c0-1.862-.868-3.57-3.08-3.57-2.114 0-3.29 1.722-3.29 3.906 0 2.198 1.078 3.836 3.332 3.836 1.582 0 2.674-.84 2.94-2.114zm10.588-1.26c0 1.344-.798 2.38-2.1 2.38-1.47 0-1.96-1.218-1.96-2.884 0-1.736.644-2.856 2.058-2.856 1.176 0 2.002 1.008 2.002 2.576zm1.232-7.84h-1.26v4.774h-.028c-.294-.686-1.008-1.302-2.114-1.302-1.862 0-3.178 1.386-3.178 3.92 0 2.842 1.442 3.822 3.01 3.822 1.134 0 1.932-.672 2.324-1.4h.042v1.218h1.204zm7.06 6.692h-3.78c.154-1.344.798-2.268 1.974-2.268 1.288 0 1.778.952 1.806 2.184zm1.19 2.408h-1.218c-.126.434-.448 1.148-1.68 1.148-1.386 0-2.002-1.036-2.086-2.562h5.082v-.644c0-1.862-.868-3.57-3.08-3.57-2.114 0-3.29 1.722-3.29 3.906 0 2.198 1.078 3.836 3.332 3.836 1.582 0 2.674-.84 2.94-2.114zm3.611 1.932h1.33l2.562-7.378h-1.204l-1.638 4.746c-.21.602-.364 1.162-.364 1.162h-.028s-.154-.56-.364-1.162l-1.596-4.746h-1.288zm9.896-4.34h-3.78c.154-1.344.798-2.268 1.974-2.268 1.288 0 1.778.952 1.806 2.184zm1.19 2.408h-1.218c-.126.434-.448 1.148-1.68 1.148-1.386 0-2.002-1.036-2.086-2.562h5.082v-.644c0-1.862-.868-3.57-3.08-3.57-2.114 0-3.29 1.722-3.29 3.906 0 2.198 1.078 3.836 3.332 3.836 1.582 0 2.674-.84 2.94-2.114zm2.084 1.932h1.26v-11.032h-1.26zm6.514.182c2.072 0 3.318-1.568 3.318-3.878 0-2.282-1.092-3.864-3.29-3.864-2.058 0-3.318 1.582-3.318 3.864 0 2.31 1.12 3.878 3.29 3.878zm.014-6.776c1.414 0 2.002 1.106 2.002 2.898 0 1.806-.602 2.898-1.974 2.898-1.428 0-2.03-1.092-2.03-2.898 0-1.792.658-2.898 2.002-2.898zm6.516 3.178v-.784c0-1.246.798-2.352 2.1-2.352 1.512 0 1.974 1.19 1.974 2.758 0 1.932-.644 2.982-1.96 2.982-1.4 0-2.114-1.148-2.114-2.604zm-1.218 6.048h1.26v-3.71h.028c.28.658 1.148 1.26 2.226 1.26 1.666 0 3.052-1.288 3.052-3.976 0-2.8-1.4-3.766-2.968-3.766-1.12 0-1.918.63-2.352 1.414h-.028v-1.232h-1.218zm8.558-2.632h1.26v-4.452c0-1.176.616-2.058 1.988-2.058.49 0 .896.14 1.148.49.266.364.266.924.266 1.456v4.564h1.26v-4.424c0-1.204.616-2.086 1.988-2.086.49 0 .896.126 1.148.476.266.364.266.938.266 1.47v4.564h1.26v-5.138c0-1.75-.952-2.422-2.338-2.422-1.218 0-2.128.756-2.408 1.526h-.028c-.266-1.022-1.106-1.526-2.226-1.526-1.176 0-2.03.672-2.366 1.428h-.028v-1.246h-1.19zm17.577-4.34h-3.78c.154-1.344.798-2.268 1.974-2.268 1.288 0 1.778.952 1.806 2.184zm1.19 2.408h-1.218c-.126.434-.448 1.148-1.68 1.148-1.386 0-2.002-1.036-2.086-2.562h5.082v-.644c0-1.862-.868-3.57-3.08-3.57-2.114 0-3.29 1.722-3.29 3.906 0 2.198 1.078 3.836 3.332 3.836 1.582 0 2.674-.84 2.94-2.114zm6.705 1.932h1.26v-5.138c0-1.75-.938-2.422-2.352-2.422-1.176 0-2.03.672-2.38 1.428h-.028v-1.246h-1.19v7.378h1.26v-4.424c0-1.204.63-2.086 2.002-2.086.49 0 .91.14 1.162.49.266.35.266.938.266 1.47zm4.233-9.52v.532c0 1.414-.224 1.652-1.218 1.652h-.224v.924h1.344v4.564c0 1.26.574 1.96 2.016 1.96.644 0 1.162-.084 1.162-.084v-1.064s-.434.07-.812.07c-.798 0-1.12-.308-1.12-1.092v-4.354h1.82v-.966h-1.82v-2.142zm9.593 3.99c-.126-1.288-1.036-2.03-2.632-2.03-1.68 0-2.674.938-2.674 2.24 0 1.288.7 1.834 2.016 2.044l1.134.168c1.008.168 1.162.49 1.162 1.078 0 .77-.63 1.246-1.638 1.246-1.302 0-1.624-.728-1.68-1.302h-1.232c.098 1.582 1.358 2.268 2.884 2.268 1.68 0 2.884-.798 2.884-2.282 0-1.274-.56-1.904-2.1-2.142l-1.134-.168c-.742-.126-1.106-.406-1.106-1.008 0-.686.574-1.19 1.442-1.19s1.4.42 1.47 1.078zm10.855 0c-.126-1.288-1.036-2.03-2.632-2.03-1.68 0-2.674.938-2.674 2.24 0 1.288.7 1.834 2.016 2.044l1.134.168c1.008.168 1.162.49 1.162 1.078 0 .77-.63 1.246-1.638 1.246-1.302 0-1.624-.728-1.68-1.302h-1.232c.098 1.582 1.358 2.268 2.884 2.268 1.68 0 2.884-.798 2.884-2.282 0-1.274-.56-1.904-2.1-2.142l-1.134-.168c-.742-.126-1.106-.406-1.106-1.008 0-.686.574-1.19 1.442-1.19s1.4.42 1.47 1.078zm2.603-3.99v.532c0 1.414-.224 1.652-1.218 1.652h-.224v.924h1.344v4.564c0 1.26.574 1.96 2.016 1.96.644 0 1.162-.084 1.162-.084v-1.064s-.434.07-.812.07c-.798 0-1.12-.308-1.12-1.092v-4.354h1.82v-.966h-1.82v-2.142zm7.145 8.624c-.798 0-1.288-.406-1.288-1.162 0-.392.126-.7.406-.91.476-.35 1.386-.476 2.982-.546v.168c0 1.82-1.162 2.45-2.1 2.45zm-.98-4.466c.042-.63.448-1.26 1.54-1.26 1.036 0 1.54.518 1.54 1.848v.322c-1.652.056-2.8.196-3.57.602-.756.378-1.106 1.05-1.106 1.862 0 1.316.868 2.114 2.338 2.114 1.092 0 1.974-.504 2.366-1.372h.028c.126.882.518 1.302 1.694 1.302h.154v-1.022c-.546-.014-.672-.252-.672-.84v-3.01c0-1.974-.896-2.744-2.73-2.744-1.764 0-2.758.896-2.786 2.198zm6.814 5.362h1.26v-4.018c0-1.428.868-2.184 2.184-2.184h.238v-1.316h-.126c-1.078 0-2.002.756-2.338 1.526h-.028v-1.386h-1.19zm6.08-9.52v.532c0 1.414-.224 1.652-1.218 1.652h-.224v.924h1.344v4.564c0 1.26.574 1.96 2.016 1.96.644 0 1.162-.084 1.162-.084v-1.064s-.434.07-.812.07c-.798 0-1.12-.308-1.12-1.092v-4.354h1.82v-.966h-1.82v-2.142zm9.592 3.99c-.126-1.288-1.036-2.03-2.632-2.03-1.68 0-2.674.938-2.674 2.24 0 1.288.7 1.834 2.016 2.044l1.134.168c1.008.168 1.162.49 1.162 1.078 0 .77-.63 1.246-1.638 1.246-1.302 0-1.624-.728-1.68-1.302h-1.232c.098 1.582 1.358 2.268 2.884 2.268 1.68 0 2.884-.798 2.884-2.282 0-1.274-.56-1.904-2.1-2.142l-1.134-.168c-.742-.126-1.106-.406-1.106-1.008 0-.686.574-1.19 1.442-1.19s1.4.42 1.47 1.078zm1.761 5.53h1.708v-1.708h-1.708z" fill="#fff"/><path d="m272.74 193.186c1.722 0 2.562 1.204 2.744 2.296h1.372c-.238-2.394-2.296-3.36-4.116-3.36-2.786 0-4.788 2.058-4.788 5.544 0 3.738 1.974 5.544 4.76 5.544 2.422 0 3.976-1.54 4.144-3.556h-1.33c-.14 1.218-.924 2.492-2.814 2.492-2.142 0-3.374-1.708-3.374-4.48 0-2.674 1.204-4.48 3.402-4.48zm8.968 9.996c2.072 0 3.318-1.568 3.318-3.878 0-2.282-1.092-3.864-3.29-3.864-2.058 0-3.318 1.582-3.318 3.864 0 2.31 1.12 3.878 3.29 3.878zm.014-6.776c1.414 0 2.002 1.106 2.002 2.898 0 1.806-.602 2.898-1.974 2.898-1.428 0-2.03-1.092-2.03-2.898 0-1.792.658-2.898 2.002-2.898zm5.297 6.594h1.26v-4.452c0-1.176.616-2.058 1.988-2.058.49 0 .896.14 1.148.49.266.364.266.924.266 1.456v4.564h1.26v-4.424c0-1.204.616-2.086 1.988-2.086.49 0 .896.126 1.148.476.266.364.266.938.266 1.47v4.564h1.26v-5.138c0-1.75-.952-2.422-2.338-2.422-1.218 0-2.128.756-2.408 1.526h-.028c-.266-1.022-1.106-1.526-2.226-1.526-1.176 0-2.03.672-2.366 1.428h-.028v-1.246h-1.19zm14.37-3.416v-.784c0-1.246.798-2.352 2.1-2.352 1.512 0 1.974 1.19 1.974 2.758 0 1.932-.644 2.982-1.96 2.982-1.4 0-2.114-1.148-2.114-2.604zm-1.218 6.048h1.26v-3.71h.028c.28.658 1.148 1.26 2.226 1.26 1.666 0 3.052-1.288 3.052-3.976 0-2.8-1.4-3.766-2.968-3.766-1.12 0-1.918.63-2.352 1.414h-.028v-1.232h-1.218zm11.328-2.45c2.072 0 3.318-1.568 3.318-3.878 0-2.282-1.092-3.864-3.29-3.864-2.058 0-3.318 1.582-3.318 3.864 0 2.31 1.12 3.878 3.29 3.878zm.014-6.776c1.414 0 2.002 1.106 2.002 2.898 0 1.806-.602 2.898-1.974 2.898-1.428 0-2.03-1.092-2.03-2.898 0-1.792.658-2.898 2.002-2.898zm10.21 1.064c-.126-1.288-1.036-2.03-2.632-2.03-1.681 0-2.674.938-2.674 2.24 0 1.288.7 1.834 2.016 2.044l1.134.168c1.008.168 1.162.49 1.162 1.078 0 .77-.63 1.246-1.638 1.246-1.302 0-1.624-.728-1.681-1.302h-1.231c.098 1.582 1.358 2.268 2.883 2.268 1.681 0 2.885-.798 2.885-2.282 0-1.274-.56-1.904-2.1-2.142l-1.134-.168c-.742-.126-1.106-.406-1.106-1.008 0-.686.574-1.19 1.442-1.19s1.4.42 1.47 1.078zm6.689 1.19h-3.78c.154-1.344.798-2.268 1.974-2.268 1.288 0 1.778.952 1.806 2.184zm1.19 2.408h-1.218c-.126.434-.448 1.148-1.68 1.148-1.386 0-2.002-1.036-2.086-2.562h5.082v-.644c0-1.862-.868-3.57-3.08-3.57-2.114 0-3.29 1.722-3.29 3.906 0 2.198 1.078 3.836 3.332 3.836 1.582 0 2.674-.84 2.94-2.114zm7.256 1.932h1.33l1.358-4.34c.21-.672.462-1.568.462-1.568h.014s.252.882.462 1.568l1.344 4.34h1.33l2.282-7.378h-1.218l-1.456 4.984c-.126.434-.238.924-.238.924h-.028s-.126-.49-.266-.924l-1.554-4.984h-1.288l-1.568 4.984c-.14.434-.28.924-.28.924h-.028s-.112-.476-.238-.938l-1.428-4.97h-1.288zm10.248-9.058h1.33v-1.358h-1.33zm.028 9.058h1.274v-7.378h-1.274zm4.317-9.52v.532c0 1.414-.224 1.652-1.218 1.652h-.224v.924h1.344v4.564c0 1.26.574 1.96 2.016 1.96.644 0 1.162-.084 1.162-.084v-1.064s-.434.07-.812.07c-.798 0-1.12-.308-1.12-1.092v-4.354h1.82v-.966h-1.82v-2.142zm9.369 9.52h1.26v-5.138c0-1.75-.938-2.422-2.352-2.422-1.204 0-1.988.686-2.31 1.4h-.028v-4.872h-1.26v11.032h1.26v-4.424c0-1.204.63-2.086 2.002-2.086.49 0 .91.14 1.162.49.266.35.266.924.266 1.456zm12.486-5.53c-.126-1.288-1.036-2.03-2.632-2.03-1.68 0-2.674.938-2.674 2.24 0 1.288.7 1.834 2.016 2.044l1.134.168c1.008.168 1.162.49 1.162 1.078 0 .77-.63 1.246-1.638 1.246-1.302 0-1.624-.728-1.68-1.302h-1.232c.098 1.582 1.358 2.268 2.884 2.268 1.68 0 2.884-.798 2.884-2.282 0-1.274-.56-1.904-2.1-2.142l-1.134-.168c-.742-.126-1.106-.406-1.106-1.008 0-.686.574-1.19 1.442-1.19s1.4.42 1.47 1.078zm3.921 5.53-.14.392c-.322.994-.63 1.344-1.568 1.344-.126 0-.406-.014-.644-.07v1.036c.196.042.476.084.756.084 1.596 0 2.086-.63 2.674-2.324l2.688-7.84h-1.26l-1.512 4.606c-.238.714-.364 1.162-.364 1.162h-.042s-.126-.448-.364-1.148l-1.54-4.62h-1.26zm10.326-5.53c-.126-1.288-1.036-2.03-2.632-2.03-1.68 0-2.674.938-2.674 2.24 0 1.288.7 1.834 2.016 2.044l1.134.168c1.008.168 1.162.49 1.162 1.078 0 .77-.63 1.246-1.638 1.246-1.302 0-1.624-.728-1.68-1.302h-1.232c.098 1.582 1.358 2.268 2.884 2.268 1.68 0 2.884-.798 2.884-2.282 0-1.274-.56-1.904-2.1-2.142l-1.134-.168c-.742-.126-1.106-.406-1.106-1.008 0-.686.574-1.19 1.442-1.19s1.4.42 1.47 1.078zm2.603-3.99v.532c0 1.414-.224 1.652-1.218 1.652h-.224v.924h1.344v4.564c0 1.26.574 1.96 2.016 1.96.644 0 1.162-.084 1.162-.084v-1.064s-.434.07-.812.07c-.798 0-1.12-.308-1.12-1.092v-4.354h1.82v-.966h-1.82v-2.142zm9.24 5.18h-3.78c.154-1.344.798-2.268 1.974-2.268 1.288 0 1.778.952 1.806 2.184zm1.19 2.408h-1.218c-.126.434-.448 1.148-1.68 1.148-1.386 0-2.002-1.036-2.086-2.562h5.082v-.644c0-1.862-.868-3.57-3.08-3.57-2.114 0-3.29 1.722-3.29 3.906 0 2.198 1.078 3.836 3.332 3.836 1.582 0 2.674-.84 2.94-2.114zm2.015 1.932h1.26v-4.452c0-1.176.616-2.058 1.988-2.058.49 0 .896.14 1.148.49.266.364.266.924.266 1.456v4.564h1.26v-4.424c0-1.204.616-2.086 1.988-2.086.49 0 .896.126 1.148.476.266.364.266.938.266 1.47v4.564h1.26v-5.138c0-1.75-.952-2.422-2.338-2.422-1.218 0-2.128.756-2.408 1.526h-.028c-.266-1.022-1.106-1.526-2.226-1.526-1.176 0-2.03.672-2.366 1.428h-.028v-1.246h-1.19zm18.185-7.378h-1.246v5.138c0 1.736.952 2.422 2.366 2.422 1.176 0 1.988-.686 2.324-1.442h.028v1.26h1.204v-7.378h-1.26v3.99c0 1.624-.644 2.534-2.016 2.534-.49 0-.882-.154-1.134-.49-.266-.35-.266-.966-.266-1.498zm7.706-2.142v.532c0 1.414-.224 1.652-1.218 1.652h-.224v.924h1.344v4.564c0 1.26.574 1.96 2.016 1.96.644 0 1.162-.084 1.162-.084v-1.064s-.434.07-.812.07c-.798 0-1.12-.308-1.12-1.092v-4.354h1.82v-.966h-1.82v-2.142zm4.788.462h1.33v-1.358h-1.33zm.028 9.058h1.274v-7.378h-1.274zm3.91 0h1.26v-11.032h-1.26zm3.855-9.058h1.33v-1.358h-1.33zm.028 9.058h1.274v-7.378h-1.274zm4.316-9.52v.532c0 1.414-.224 1.652-1.218 1.652h-.224v.924h1.344v4.564c0 1.26.574 1.96 2.016 1.96.644 0 1.162-.084 1.162-.084v-1.064s-.434.07-.812.07c-.798 0-1.12-.308-1.12-1.092v-4.354h1.82v-.966h-1.82v-2.142zm4.789.462h1.33v-1.358h-1.33zm.028 9.058h1.274v-7.378h-1.274zm8.334-4.34h-3.78c.154-1.344.798-2.268 1.974-2.268 1.288 0 1.778.952 1.806 2.184zm1.19 2.408h-1.218c-.126.434-.448 1.148-1.68 1.148-1.386 0-2.002-1.036-2.086-2.562h5.082v-.644c0-1.862-.868-3.57-3.08-3.57-2.114 0-3.29 1.722-3.29 3.906 0 2.198 1.078 3.836 3.332 3.836 1.582 0 2.674-.84 2.94-2.114zm6.927-3.598c-.126-1.288-1.036-2.03-2.632-2.03-1.68 0-2.674.938-2.674 2.24 0 1.288.7 1.834 2.016 2.044l1.134.168c1.008.168 1.162.49 1.162 1.078 0 .77-.63 1.246-1.638 1.246-1.302 0-1.624-.728-1.68-1.302h-1.232c.098 1.582 1.358 2.268 2.884 2.268 1.68 0 2.884-.798 2.884-2.282 0-1.274-.56-1.904-2.1-2.142l-1.134-.168c-.742-.126-1.106-.406-1.106-1.008 0-.686.574-1.19 1.442-1.19s1.4.42 1.47 1.078z" fill="#fff" opacity=".8"/><path d="m526 253h2v16h-2z" fill="#8b8b8b"/><path d="m303.096 225.592h.028s.196.686.42 1.33l1.344 3.836h-3.556l1.33-3.836c.21-.602.406-1.26.434-1.33zm3.276 9.408h1.386l-3.85-10.71h-1.54l-3.808 10.71h1.302l1.106-3.192h4.284zm7.874-3.192c0 1.344-.798 2.38-2.1 2.38-1.47 0-1.96-1.218-1.96-2.884 0-1.736.644-2.856 2.058-2.856 1.176 0 2.002 1.008 2.002 2.576zm1.232-7.84h-1.26v4.774h-.028c-.294-.686-1.008-1.302-2.114-1.302-1.862 0-3.178 1.386-3.178 3.92 0 2.842 1.442 3.822 3.01 3.822 1.134 0 1.932-.672 2.324-1.4h.042v1.218h1.204zm7.327 7.84c0 1.344-.798 2.38-2.1 2.38-1.47 0-1.96-1.218-1.96-2.884 0-1.736.644-2.856 2.058-2.856 1.176 0 2.002 1.008 2.002 2.576zm1.232-7.84h-1.26v4.774h-.028c-.294-.686-1.008-1.302-2.114-1.302-1.862 0-3.178 1.386-3.178 3.92 0 2.842 1.442 3.822 3.01 3.822 1.134 0 1.932-.672 2.324-1.4h.042v1.218h1.204zm6.451 11.032h1.26v-11.032h-1.26zm6.515.182c2.072 0 3.318-1.568 3.318-3.878 0-2.282-1.092-3.864-3.29-3.864-2.058 0-3.318 1.582-3.318 3.864 0 2.31 1.12 3.878 3.29 3.878zm.014-6.776c1.414 0 2.002 1.106 2.002 2.898 0 1.806-.602 2.898-1.974 2.898-1.428 0-2.03-1.092-2.03-2.898 0-1.792.658-2.898 2.002-2.898zm10.124 3.248c0 1.26-.854 2.296-2.044 2.296-1.554 0-2.016-1.12-2.016-2.744 0-1.666.63-2.772 1.96-2.772 1.274 0 2.1 1.008 2.1 2.478zm-2.156 6.132c2.002 0 3.36-.896 3.36-2.968v-7.196h-1.204v1.162h-.028c-.308-.686-1.022-1.344-2.212-1.344-1.82 0-3.108 1.33-3.108 3.766 0 2.73 1.414 3.696 2.954 3.696 1.106 0 1.974-.63 2.352-1.358h.014v1.092c0 1.624-.7 2.142-2.1 2.142-1.204 0-1.68-.406-1.82-1.036h-1.218c.168 1.526 1.61 2.044 3.01 2.044zm5.969-11.844h1.33v-1.358h-1.33zm.028 9.058h1.274v-7.378h-1.274zm9.482-5.152c-.126-1.736-1.456-2.408-2.926-2.408-2.072 0-3.304 1.652-3.304 3.906 0 2.338 1.148 3.822 3.276 3.822 1.596 0 2.814-.868 2.996-2.576h-1.176c-.042.56-.406 1.596-1.806 1.596-1.484 0-2.002-1.19-2.002-2.898 0-1.722.7-2.884 2.03-2.884 1.064 0 1.596.686 1.68 1.442z" fill="#fff" opacity=".8"/><path d="m528.758 229.386v-4.032h2.52c1.232 0 2.142.644 2.142 1.96 0 1.47-.938 2.072-2.198 2.072zm4.592 5.614h1.512l-2.366-4.718v-.028c.98-.252 2.296-.938 2.296-2.954 0-1.232-.532-2.058-1.386-2.534-.588-.308-1.288-.476-2.072-.476h-3.878v10.71h1.302v-4.536h2.38zm7.947-4.34h-3.78c.154-1.344.798-2.268 1.974-2.268 1.288 0 1.778.952 1.806 2.184zm1.19 2.408h-1.218c-.126.434-.448 1.148-1.68 1.148-1.386 0-2.002-1.036-2.086-2.562h5.082v-.644c0-1.862-.868-3.57-3.08-3.57-2.114 0-3.29 1.722-3.29 3.906 0 2.198 1.078 3.836 3.332 3.836 1.582 0 2.674-.84 2.94-2.114zm2.083 1.932h1.26v-11.032h-1.26zm8.307-4.34h-3.78c.154-1.344.798-2.268 1.974-2.268 1.288 0 1.778.952 1.806 2.184zm1.19 2.408h-1.218c-.126.434-.448 1.148-1.68 1.148-1.386 0-2.002-1.036-2.086-2.562h5.082v-.644c0-1.862-.868-3.57-3.08-3.57-2.114 0-3.29 1.722-3.29 3.906 0 2.198 1.078 3.836 3.332 3.836 1.582 0 2.674-.84 2.94-2.114zm3.987 1.036c-.798 0-1.288-.406-1.288-1.162 0-.392.126-.7.406-.91.476-.35 1.386-.476 2.982-.546v.168c0 1.82-1.162 2.45-2.1 2.45zm-.98-4.466c.042-.63.448-1.26 1.54-1.26 1.036 0 1.54.518 1.54 1.848v.322c-1.652.056-2.8.196-3.57.602-.756.378-1.106 1.05-1.106 1.862 0 1.316.868 2.114 2.338 2.114 1.092 0 1.974-.504 2.366-1.372h.028c.126.882.518 1.302 1.694 1.302h.154v-1.022c-.546-.014-.672-.252-.672-.84v-3.01c0-1.974-.896-2.744-2.73-2.744-1.764 0-2.758.896-2.786 2.198zm11.727-.168c-.126-1.288-1.036-2.03-2.632-2.03-1.68 0-2.674.938-2.674 2.24 0 1.288.7 1.834 2.016 2.044l1.134.168c1.008.168 1.162.49 1.162 1.078 0 .77-.63 1.246-1.638 1.246-1.302 0-1.624-.728-1.68-1.302h-1.232c.098 1.582 1.358 2.268 2.884 2.268 1.68 0 2.884-.798 2.884-2.282 0-1.274-.56-1.904-2.1-2.142l-1.134-.168c-.742-.126-1.106-.406-1.106-1.008 0-.686.574-1.19 1.442-1.19s1.4.42 1.47 1.078zm6.689 1.19h-3.78c.154-1.344.798-2.268 1.974-2.268 1.288 0 1.778.952 1.806 2.184zm1.19 2.408h-1.218c-.126.434-.448 1.148-1.68 1.148-1.386 0-2.002-1.036-2.086-2.562h5.082v-.644c0-1.862-.868-3.57-3.08-3.57-2.114 0-3.29 1.722-3.29 3.906 0 2.198 1.078 3.836 3.332 3.836 1.582 0 2.674-.84 2.94-2.114z" fill="#fff" opacity=".8"/><circle cx="238" cy="261" fill="#8b8b8b" r="6"/><path d="m0 260h528v2h-528z" fill="#fff" opacity=".2"/><path d="m237 180h2v66h-2z" fill="#fff" opacity=".2"/><path d="m269 212h2v34h-2z" fill="#fff" opacity=".2"/><path d="m3.456 235h3.444c2.926 0 5.026-1.722 5.026-5.488 0-3.794-2.254-5.222-5.18-5.222h-3.29zm1.302-1.12v-8.47h2.072c2.156 0 3.738 1.148 3.738 4.144 0 3.15-1.554 4.326-3.822 4.326zm13.8511-3.22h-3.78c.154-1.344.798-2.268 1.974-2.268 1.288 0 1.778.952 1.806 2.184zm1.19 2.408h-1.218c-.126.434-.448 1.148-1.68 1.148-1.386 0-2.002-1.036-2.086-2.562h5.082v-.644c0-1.862-.868-3.57-3.08-3.57-2.114 0-3.29 1.722-3.29 3.906 0 2.198 1.078 3.836 3.332 3.836 1.582 0 2.674-.84 2.94-2.114zm6.9273-3.598c-.126-1.288-1.036-2.03-2.632-2.03-1.68 0-2.674.938-2.674 2.24 0 1.288.7 1.834 2.016 2.044l1.134.168c1.008.168 1.162.49 1.162 1.078 0 .77-.63 1.246-1.638 1.246-1.302 0-1.624-.728-1.68-1.302h-1.232c.098 1.582 1.358 2.268 2.884 2.268 1.68 0 2.884-.798 2.884-2.282 0-1.274-.56-1.904-2.1-2.142l-1.134-.168c-.742-.126-1.106-.406-1.106-1.008 0-.686.574-1.19 1.442-1.19s1.4.42 1.47 1.078zm2.2374-3.528h1.33v-1.358h-1.33zm.028 9.058h1.274v-7.378h-1.274zm8.6001-3.346c0 1.26-.854 2.296-2.044 2.296-1.554 0-2.016-1.12-2.016-2.744 0-1.666.63-2.772 1.96-2.772 1.274 0 2.1 1.008 2.1 2.478zm-2.156 6.132c2.002 0 3.36-.896 3.36-2.968v-7.196h-1.204v1.162h-.028c-.308-.686-1.022-1.344-2.212-1.344-1.82 0-3.108 1.33-3.108 3.766 0 2.73 1.414 3.696 2.954 3.696 1.106 0 1.974-.63 2.352-1.358h.014v1.092c0 1.624-.7 2.142-2.1 2.142-1.204 0-1.68-.406-1.82-1.036h-1.218c.168 1.526 1.61 2.044 3.01 2.044zm10.6873-2.786h1.26v-5.138c0-1.75-.938-2.422-2.352-2.422-1.176 0-2.03.672-2.38 1.428h-.028v-1.246h-1.19v7.378h1.26v-4.424c0-1.204.63-2.086 2.002-2.086.49 0 .91.14 1.162.49.266.35.266.938.266 1.47zm9.546-.896c-.798 0-1.288-.406-1.288-1.162 0-.392.126-.7.406-.91.476-.35 1.386-.476 2.982-.546v.168c0 1.82-1.162 2.45-2.1 2.45zm-.98-4.466c.042-.63.448-1.26 1.54-1.26 1.036 0 1.54.518 1.54 1.848v.322c-1.652.056-2.8.196-3.57.602-.756.378-1.106 1.05-1.106 1.862 0 1.316.868 2.114 2.338 2.114 1.092 0 1.974-.504 2.366-1.372h.028c.126.882.518 1.302 1.694 1.302h.154v-1.022c-.546-.014-.672-.252-.672-.84v-3.01c0-1.974-.896-2.744-2.73-2.744-1.764 0-2.758.896-2.786 2.198zm11.5043 5.362h1.26v-5.138c0-1.75-.938-2.422-2.352-2.422-1.176 0-2.03.672-2.38 1.428h-.028v-1.246h-1.19v7.378h1.26v-4.424c0-1.204.63-2.086 2.002-2.086.49 0 .91.14 1.162.49.266.35.266.938.266 1.47zm8.5176-3.192c0 1.344-.798 2.38-2.1 2.38-1.47 0-1.96-1.218-1.96-2.884 0-1.736.644-2.856 2.058-2.856 1.176 0 2.002 1.008 2.002 2.576zm1.232-7.84h-1.26v4.774h-.028c-.294-.686-1.008-1.302-2.114-1.302-1.862 0-3.178 1.386-3.178 3.92 0 2.842 1.442 3.822 3.01 3.822 1.134 0 1.932-.672 2.324-1.4h.042v1.218h1.204zm7.669 7.616v-.784c0-1.246.798-2.352 2.1-2.352 1.512 0 1.974 1.19 1.974 2.758 0 1.932-.644 2.982-1.96 2.982-1.4 0-2.114-1.148-2.114-2.604zm-1.218 6.048h1.26v-3.71h.028c.28.658 1.148 1.26 2.226 1.26 1.666 0 3.052-1.288 3.052-3.976 0-2.8-1.4-3.766-2.968-3.766-1.12 0-1.918.63-2.352 1.414h-.028v-1.232h-1.218zm8.5586-2.632h1.26v-11.032h-1.26zm5.7185-.896c-.798 0-1.288-.406-1.288-1.162 0-.392.126-.7.406-.91.476-.35 1.386-.476 2.982-.546v.168c0 1.82-1.162 2.45-2.1 2.45zm-.98-4.466c.042-.63.448-1.26 1.54-1.26 1.036 0 1.54.518 1.54 1.848v.322c-1.652.056-2.8.196-3.57.602-.756.378-1.106 1.05-1.106 1.862 0 1.316.868 2.114 2.338 2.114 1.092 0 1.974-.504 2.366-1.372h.028c.126.882.518 1.302 1.6938 1.302h.154v-1.022c-.546-.014-.672-.252-.672-.84v-3.01c0-1.974-.8958-2.744-2.7298-2.744-1.764 0-2.758.896-2.786 2.198zm11.5038 5.362h1.26v-5.138c0-1.75-.938-2.422-2.352-2.422-1.176 0-2.03.672-2.38 1.428h-.028v-1.246h-1.19v7.378h1.26v-4.424c0-1.204.63-2.086 2.002-2.086.49 0 .91.14 1.162.49.266.35.266.938.266 1.47z" fill="#fff" opacity=".8"/><circle cx="6" cy="261" fill="#8b8b8b" r="6"/><circle cx="186" cy="261" fill="#fff" r="10"/><circle cx="270" cy="261" fill="#8b8b8b" r="6"/><circle cx="302" cy="261" fill="#8b8b8b" r="6"/><path d="m185 288h2v18h-2z" fill="#fff"/><path d="m178 295 8-8 8 8" stroke="#fff" stroke-width="2"/></svg>