<svg width="1127" height="320" viewBox="0 0 1127 320" fill="none" xmlns="http://www.w3.org/2000/svg">
<g opacity="0.2">
<path fill-rule="evenodd" clip-rule="evenodd" d="M714 48C705.163 48 698 55.1634 698 64V81.5842C661.484 88.922 634 120.882 634 159.196C634 159.466 634.006 159.734 634.018 160H634V212.87L602 224V256H826V224L794 212.87V160H793.982C793.994 159.734 794 159.466 794 159.196C794 120.882 766.516 88.922 730 81.5842V64C730 55.1634 722.837 48 714 48Z" fill="white"/>
<path fill-rule="evenodd" clip-rule="evenodd" d="M686.281 272C683.558 276.707 682 282.171 682 288C682 305.673 696.327 320 714 320C731.673 320 746 305.673 746 288C746 282.171 744.442 276.707 741.719 272H686.281Z" fill="white"/>
</g>
<g opacity="0.2">
<path fill-rule="evenodd" clip-rule="evenodd" d="M470.372 168L401.686 99.3137L424.313 76.6863L531.627 184L424.313 291.314L401.686 268.686L470.372 200L301 200V168L470.372 168Z" fill="white"/>
</g>
<g opacity="0.2">
<path fill-rule="evenodd" clip-rule="evenodd" d="M16 96C7.16344 96 0 103.163 0 112V240C0 248.837 7.16345 256 16 256H208C216.837 256 224 248.837 224 240V112C224 103.163 216.837 96 208 96H16ZM136 176C136 189.255 125.255 200 112 200C98.7452 200 88 189.255 88 176C88 162.745 98.7452 152 112 152C125.255 152 136 162.745 136 176Z" fill="white"/>
<path fill-rule="evenodd" clip-rule="evenodd" d="M160 144V80C160 53.4903 138.51 32 112 32C85.4903 32 64 53.4903 64 80L64 112L32 112V80C32 35.8172 67.8172 0 112 0C156.183 0 192 35.8172 192 80V144H160Z" fill="white"/>
</g>
<g opacity="0.2">
<path d="M903 112H1111C1119.84 112 1127 119.163 1127 128V240C1127 248.837 1119.84 256 1111 256H919C910.163 256 903 248.837 903 240V112Z" fill="white"/>
<path d="M903 80C903 71.1634 910.163 64 919 64H983C991.837 64 999 71.1634 999 80V96H903V80Z" fill="white"/>
</g>
</svg>
